<svg id="Layer_1" data-name="Layer 1" xmlns="http://www.w3.org/2000/svg" xmlns:xlink="http://www.w3.org/1999/xlink" viewBox="0 0 624.45 135"><defs><style>.cls-1{fill-rule:evenodd;fill:url(#linear-gradient);}.cls-2{fill:#ff850b;stroke:#ff850b;}.cls-2,.cls-3{stroke-miterlimit:10;}.cls-3{fill:#101820;stroke:#000;}</style><linearGradient id="linear-gradient" x1="1.05" y1="67.5" x2="106.04" y2="67.5" gradientUnits="userSpaceOnUse"><stop offset="0" stop-color="#6a90ff"/><stop offset="0.32" stop-color="#5293ff"/><stop offset="1" stop-color="#1599ff"/></linearGradient></defs><title>l-logo</title><path class="cls-1" d="M63.74,85.78l-10.2,5.89L43.35,85.78v17.15L22.68,91V73L1.05,60.49v44.2L53.54,135,106,104.69V60.49L84.41,73V91L63.74,102.93V85.78Zm-10.2-6.54L43.36,73.36V47L23,35.28V61.35l-22-12.69V0L53.54,30.31,106,0V48.66l-22,12.69V35.28L63.73,47V73.36Z" transform="translate(-1.05)"/><path class="cls-2" d="M130.41,89.16v1.62H134v10.09h1.82V90.78h3.56V89.16Z" transform="translate(-1.05)"/><path class="cls-2" d="M160,89.16v11.71h1.84v-4.7h2.35l2.31,4.7h2q-1.77-3.56-2.51-5.06a3.5,3.5,0,0,0,1.56-1.25,3.51,3.51,0,0,0-.48-4.45,4.13,4.13,0,0,0-2.85-1Zm1.84,1.76h2.31a2.53,2.53,0,0,1,1.63.49,1.53,1.53,0,0,1,.56,1.25,1.56,1.56,0,0,1-.56,1.24,2.44,2.44,0,0,1-1.63.49H161.8Z" transform="translate(-1.05)"/><path class="cls-2" d="M194.72,89.16q-1.11,2.63-4.85,11.71h2c.14-.34.35-.86.64-1.55l.64-1.56H198c.14.34.35.85.63,1.55l.64,1.56h2q-2.75-6.62-4.84-11.71Zm.85,2.67,1.74,4.23h-3.47Z" transform="translate(-1.05)"/><path class="cls-2" d="M218.77,89.16l4.85,11.71h1.71l4.84-11.71h-2l-3.71,9-3.71-9Z" transform="translate(-1.05)"/><path class="cls-2" d="M251.38,89.16v11.71h7.69V99.16h-5.88V95.73h5.23V94.09h-5.23V90.83h5.88V89.16Z" transform="translate(-1.05)"/><path class="cls-2" d="M279.07,89.16v11.71h7.69v-1.7h-5.88v-10Z" transform="translate(-1.05)"/><path class="cls-2" d="M304.49,89.16v1.62h3.57v10.09h1.81V90.78h3.57V89.16Z" transform="translate(-1.05)"/><path class="cls-2" d="M333.63,89.16v11.71h7.69V99.16h-5.88V95.73h5.23V94.09h-5.23V90.83h5.88V89.16Z" transform="translate(-1.05)"/><path class="cls-2" d="M368.81,89a5.91,5.91,0,0,0-2.26.44,5.49,5.49,0,0,0-3.12,3.1,6.62,6.62,0,0,0,0,4.9,5.54,5.54,0,0,0,1.26,1.9,5.7,5.7,0,0,0,1.86,1.21,5.9,5.9,0,0,0,2.26.43,6,6,0,0,0,3-.77,5.43,5.43,0,0,0,2.12-2.13l.43-.8h-2l-.16.24a3.21,3.21,0,0,1-.47.58,4.41,4.41,0,0,1-5.76,0,4.75,4.75,0,0,1,0-6.22,4.41,4.41,0,0,1,5.76,0,3.61,3.61,0,0,1,.47.58l.16.24h2l-.43-.8a5.43,5.43,0,0,0-2.12-2.13,6,6,0,0,0-3-.77Z" transform="translate(-1.05)"/><path class="cls-2" d="M396.61,89.16v11.71h1.8V95.79h5.34v5.08h1.8V89.16h-1.8v4.93h-5.34V89.16Z" transform="translate(-1.05)"/><path class="cls-2" d="M447.13,89.16v11.71H449V96.59h2.38a3.86,3.86,0,0,0,2.8-1.08,3.68,3.68,0,0,0,0-5.28,3.85,3.85,0,0,0-2.83-1.07ZM449,90.92h2.31a2.25,2.25,0,0,1,1.6.55,1.83,1.83,0,0,1,.59,1.4,1.86,1.86,0,0,1-.59,1.41,2.26,2.26,0,0,1-1.6.54H449Z" transform="translate(-1.05)"/><path class="cls-2" d="M476.51,89.16l4.84,11.71h1.71l4.85-11.71h-2l-3.71,9-3.71-9Z" transform="translate(-1.05)"/><path class="cls-2" d="M509.31,89.16v1.62h3.56v10.09h1.81V90.78h3.57V89.16Z" transform="translate(-1.05)"/><path class="cls-2" d="M559.16,89.16v11.71h7.69v-1.7H561v-10Z" transform="translate(-1.05)"/><path class="cls-2" d="M584.58,89.16v1.62h3.56v10.09H590V90.78h3.56V89.16Z" transform="translate(-1.05)"/><path class="cls-2" d="M614.52,89.16v11.71h3.24a6.31,6.31,0,0,0,2.41-.47,5.82,5.82,0,0,0,3.18-7.66,5.88,5.88,0,0,0-1.26-1.86,5.72,5.72,0,0,0-1.92-1.26,6.3,6.3,0,0,0-2.41-.46Zm1.85,1.76h1.27a4.31,4.31,0,0,1,3.15,1.16,4.23,4.23,0,0,1,0,5.86,4.31,4.31,0,0,1-3.15,1.16h-1.27Z" transform="translate(-1.05)"/><path class="cls-3" d="M153,25.87h9.86V67H153V53.75a.18.18,0,0,0-.2-.2H139.19v13.5h-10V26h10V43.69H153Zm1.61,1.61V45.33h-17.1V27.59h-6.53V65.42h6.53V51.94h17.1V65.33h6.61V27.68c0-.14-.06-.2-.17-.2Z" transform="translate(-1.05)"/><path class="cls-3" d="M182.65,25.81h11.61L200.87,37h.2l6.61-11.18h11.64v.12Q208.31,44.1,206,48.14V67H196V48.26q0-.4-4.91-8.28Zm2.9,1.64q11.89,19.77,12.16,20.35V65.42h6.52V47.88q.09-.48,4.37-7.44l7.82-13h-7.65q-6.57,10.67-7.7,12.82h-.2q-1.12-2.16-7.7-12.82Z" transform="translate(-1.05)"/><path class="cls-3" d="M239.15,25.81H258.5q7,0,11.41,6.35a14.76,14.76,0,0,1,2.27,7.62V41a14.28,14.28,0,0,1-5.44,11.18q-3.62,2.91-9.62,2.91H249V67h-9.89Zm1.64,1.64V65.36h6.64V53.49h8.71q7,0,9.89-2.9a12.66,12.66,0,0,0,4.51-9.89v-.55a12.75,12.75,0,0,0-5.61-10.72,12.46,12.46,0,0,0-6.81-2Zm6.64,6.61h10.78q4.25,0,5.63,4.63.09.91.09,1.38V41a5.94,5.94,0,0,1-3.28,5.37,9.06,9.06,0,0,1-3.45.52h-9.77ZM249,35.7v9.45h9.17a3.76,3.76,0,0,0,3.82-2.9,6.1,6.1,0,0,0,.26-1.84q0-4-3.71-4.71Z" transform="translate(-1.05)"/><path class="cls-3" d="M292.58,25.84h31.13v9.89H302.47v5.69h16.24v9.91h-16c-.13,0-.2.06-.2.18V57h21.24V67H292.58Zm1.64,1.61V65.19c0,.13.08.2.17.2H321.9c.11,0,.17-.07.17-.2V58.75H300.86V49.69H317.1V43.06H300.86v-9h21.21V27.45Z" transform="translate(-1.05)"/><path class="cls-3" d="M356.93,25.81q9.56.09,20.5.09V41.16a14.84,14.84,0,0,1-4.83,10.89,20.57,20.57,0,0,1,4.83,13.68V67h-11v-.09q0-7.62-5.06-9.8a14.24,14.24,0,0,0-6.06-1.47V67H344.12V25.9Q351.31,25.9,356.93,25.81Zm-11.21,1.7V65.42h7.91V54h.08q10,0,13.28,6.84a13.58,13.58,0,0,1,.92,4.6h7.91v-.15a19.12,19.12,0,0,0-4.37-12.13l-1.15-1.23v-.15q5.59-3.76,5.6-12.13V27.51h-.08q-8.19,0-18.66-.09-6.53.09-11.44.09Zm7.91,7.81h14.28V41a4.82,4.82,0,0,1-3.07,4.75,10.12,10.12,0,0,1-2.91.31h-8.3Zm1.64,1.61v7.53h7.5q3.62,0,3.62-4.14V37.11c0-.12-.06-.18-.17-.18Z" transform="translate(-1.05)"/><path class="cls-3" d="M397.83,25.78H408q.25.06,2.93,7.45.88,2.09,7.53,19.71h.17q.92-2.61,10.35-27.16h10.26V67h-9.89V52.86h-.08L423.87,67H413.15l-5.34-14.14h-.09V67h-9.89Zm1.64,1.64v38h6.61V43.86h.09l8.19,21.53h8.33l8.17-21.53H431V65.39h6.61v-38h-7.36q-.42.57-4.34,11.27-1.08,2.49-7.27,19h-.17q-.46-1.44-11.53-30.24Z" transform="translate(-1.05)"/><path class="cls-3" d="M459.62,25.87h10V67h-10Zm1.73,1.61V65.36H468V27.68c0-.14-.06-.2-.17-.2Z" transform="translate(-1.05)"/><path class="cls-3" d="M510.67,25.81h10.92v.78q0,5.83-6.78,16.09Q511.36,48,505,55.9h16.55V67H490V56.62c0-.27.52-.91,1.55-1.92q13.67-16.33,16.93-23.26a15.64,15.64,0,0,0,1.84-4.31,1.46,1.46,0,0,0,.18-.51ZM512,27.36Q509.61,36.1,491.64,57v8.48H520v-8H501.73q6-7.32,10-13.07,7.5-10.85,8.16-16.33,0-.09.09-.63l-.14-.06Z" transform="translate(-1.05)"/><path class="cls-3" d="M542,25.84h31.12v9.89H551.88v5.69h16.24v9.91h-16c-.13,0-.2.06-.2.18V57h21.24V67H542Zm1.63,1.61V65.19c0,.13.08.2.18.2h27.5c.12,0,.17-.07.17-.2V58.75H550.27V49.69h16.24V43.06H550.27v-9h21.21V27.45Z" transform="translate(-1.05)"/><path class="cls-3" d="M609.28,24.63a17,17,0,0,1,11,3.91A13.69,13.69,0,0,1,625,39v.25H614.34a3.38,3.38,0,0,0-2.47-3.36,5.54,5.54,0,0,0-2.33-.46h-.43q-3.57,0-4.72,2.67a9.5,9.5,0,0,0-.17,1.44q0,1,9.77,2.56,6.36,1.66,8.62,4.71A10.7,10.7,0,0,1,625,53.6v.55q0,7.35-6.84,11.64a17.77,17.77,0,0,1-9,2.3,16.94,16.94,0,0,1-10.92-3.82A13.21,13.21,0,0,1,593.56,54v-.09h10.66c0,1.49.95,2.56,2.85,3.19a8.89,8.89,0,0,0,1.95.26h.8q4.51-.44,4.52-3.45V53.6c0-.48-3.08-1.24-9.23-2.3a16.92,16.92,0,0,1-8.19-3.82,11.06,11.06,0,0,1-3.36-8.28A13.76,13.76,0,0,1,598,28.83a16.69,16.69,0,0,1,11.3-4.2ZM595.17,39.41q0,7,8.16,9.77,2.89.69,9.86,2c1.84.55,2.76,1.29,2.76,2.21v.81q0,2.86-3.57,4.25a9.21,9.21,0,0,1-3.1.55q-4.83,0-6.38-3.57h-7.56c0,2.15,1.12,4.48,3.36,7a15.57,15.57,0,0,0,10.58,4A15,15,0,0,0,621,61.25a12.65,12.65,0,0,0,2.41-7.47Q623.42,45,611,43.2q-6.4-1.16-7.55-2a2.15,2.15,0,0,1-.81-1.75v-.12q0-3.82,4-5.23a22.62,22.62,0,0,1,2.76-.35,7.81,7.81,0,0,1,5.17,1.87,4.82,4.82,0,0,1,1.23,2h7.56q0-1.89-2-5.43a14.09,14.09,0,0,0-11.64-5.86h-1a14.43,14.43,0,0,0-10.14,4.17,12.61,12.61,0,0,0-3.45,8.91Z" transform="translate(-1.05)"/></svg>