<svg width="44" height="44" viewBox="0 0 44 44" fill="none" xmlns="http://www.w3.org/2000/svg">
<path d="M10.6242 26.2278L7.3755 22.9737L4.125 26.2278M33.3758 17.833L36.6245 21.089L39.875 17.833" stroke="black" stroke-width="2.75" stroke-linecap="round" stroke-linejoin="round"/>
<path d="M36.6245 21.089C36.6245 17.2023 35.0845 13.4788 32.3418 10.7307C30.9847 9.37082 29.3727 8.29195 27.5981 7.55582C25.8235 6.81969 23.9212 6.44075 22 6.44068C20.1338 6.4392 18.2849 6.7984 16.555 7.49851C14.6239 8.27279 12.8801 9.45005 11.4401 10.9517C10 12.4534 8.89685 14.245 8.20416 16.2068M7.37549 22.9718C7.3783 26.3719 8.56231 29.6653 10.725 32.2888C12.8853 34.9093 15.891 36.6953 19.2253 37.3401C22.5597 37.9848 26.0145 37.4479 28.996 35.8217C31.9773 34.1921 34.3004 31.5781 35.5685 28.426" stroke="black" stroke-width="2" stroke-linecap="round" stroke-linejoin="round"/>
<path d="M17.5635 25.6264C17.6589 26.7148 18.1767 27.7226 19.0059 28.4339C19.8351 29.1453 20.9099 29.5037 22.0001 29.4324C25.5788 29.4324 26.4368 27.3736 26.4368 25.6264C26.4368 23.8793 24.9573 22.0276 22.0001 22.0276C19.043 22.0276 17.5635 20.8579 17.5635 18.4746C17.6045 17.6487 17.8962 16.8549 18.3995 16.1989C18.9029 15.5429 19.5942 15.0558 20.3813 14.8024C20.9038 14.6338 21.4538 14.5733 22.0001 14.6246C23.0918 14.5772 24.16 14.9498 24.9853 15.6659C25.8105 16.3821 26.33 17.3872 26.4368 18.4746M22.0001 31.6508V29.7239M22.0001 12.3989V14.6173" stroke="#0779E4" stroke-width="2" stroke-linecap="round" stroke-linejoin="round"/>
</svg>
