<svg width="18" height="18" viewBox="0 0 18 18" fill="none" xmlns="http://www.w3.org/2000/svg">
<path d="M8.99996 0.666626C4.40496 0.666626 0.666626 4.40496 0.666626 8.99996V12.4525C0.666626 13.3058 1.41413 14 2.33329 14H3.16663C3.38764 14 3.5996 13.9122 3.75588 13.7559C3.91216 13.5996 3.99996 13.3876 3.99996 13.1666V8.88079C3.99996 8.65978 3.91216 8.44782 3.75588 8.29154C3.5996 8.13526 3.38764 8.04746 3.16663 8.04746H2.40996C2.87329 4.82246 5.64829 2.33329 8.99996 2.33329C12.3516 2.33329 15.1266 4.82246 15.59 8.04746H14.8333C14.6123 8.04746 14.4003 8.13526 14.244 8.29154C14.0878 8.44782 14 8.65978 14 8.88079V14C14 14.9191 13.2525 15.6666 12.3333 15.6666H10.6666V14.8333H7.33329V17.3333H12.3333C14.1716 17.3333 15.6666 15.8383 15.6666 14C16.5858 14 17.3333 13.3058 17.3333 12.4525V8.99996C17.3333 4.40496 13.595 0.666626 8.99996 0.666626Z" fill="#404040"/>
</svg>
