<svg width="26" height="17" viewBox="0 0 26 17" fill="none" xmlns="http://www.w3.org/2000/svg">
<path d="M25.0834 1.24996C25.0834 1.91696 24.4478 2.45829 23.6612 2.45829H2.33896C1.55354 2.45829 0.916748 1.91696 0.916748 1.24996C0.916748 0.582959 1.55354 0.041626 2.33775 0.041626H23.6612C24.4478 0.041626 25.0834 0.582959 25.0834 1.24996ZM2.33775 9.70829C1.55233 9.70829 0.916748 9.16696 0.916748 8.49996C0.916748 7.83296 1.55233 7.29163 2.33775 7.29163H23.6612C24.4466 7.29163 25.0834 7.83296 25.0834 8.49996C25.0834 9.16696 24.4466 9.70829 23.6612 9.70829H2.33775ZM23.6612 16.9583C24.4478 16.9583 25.0834 16.417 25.0834 15.75C25.0834 15.083 24.4478 14.5416 23.6612 14.5416H2.33896C1.55354 14.5416 0.916748 15.083 0.916748 15.75C0.916748 16.417 1.55354 16.9583 2.33775 16.9583H23.6612Z" fill="#252A31"/>
</svg>
