<svg width="72" height="72" viewBox="0 0 72 72" fill="none" xmlns="http://www.w3.org/2000/svg">
<g clip-path="url(#clip0_22_4731)">
<g clip-path="url(#clip1_22_4731)">
<g clip-path="url(#clip2_22_4731)">
<path d="M3.85132 70.0831H40.3302C41.0155 70.0831 41.6766 69.8299 42.1866 69.372L44.4811 67.3116C45.537 66.3634 47.1378 66.3634 48.1937 67.3116L50.4882 69.372C50.998 69.8299 51.6593 70.0831 52.3445 70.0831H67.3359C68.8704 70.0831 70.1143 68.8393 70.1143 67.3048V25.7819C70.1143 24.2474 68.8704 23.0035 67.3359 23.0035H52.3444C51.6591 23.0035 50.998 23.2568 50.4881 23.7147L48.1936 25.7751C47.1377 26.7233 45.5368 26.7233 44.4809 25.7751L42.1864 23.7147C41.6765 23.2568 41.0154 23.0035 40.3301 23.0035H3.85132C2.31685 23.0035 1.073 24.2474 1.073 25.7819V67.3048C1.073 68.8393 2.31685 70.0831 3.85132 70.0831Z" fill="#D3E1F5"/>
<path d="M67.3359 23.0035H52.3444C51.6591 23.0035 50.998 23.2568 50.4881 23.7147L48.1936 25.7751C47.1377 26.7233 45.5368 26.7233 44.4809 25.7751L42.1864 23.7147C41.6766 23.2568 41.0154 23.0035 40.3301 23.0035H3.85132C2.31685 23.0035 1.073 24.2474 1.073 25.7819V32.8318H70.1143V25.7819C70.1143 24.2474 68.8704 23.0035 67.3359 23.0035Z" fill="#5F99D7"/>
<path d="M4.87374 67.3048V25.7819C4.87374 24.2474 6.1176 23.0035 7.65206 23.0035H3.85132C2.31685 23.0035 1.073 24.2474 1.073 25.7819V67.3048C1.073 68.8393 2.31685 70.0831 3.85132 70.0831H7.65206C6.1176 70.0831 4.87374 68.8393 4.87374 67.3048Z" fill="#B3CEEC"/>
<path d="M7.65206 23.0035H3.85132C2.31685 23.0035 1.073 24.2474 1.073 25.7819V32.8318H4.87374V25.7819C4.87374 24.2474 6.1176 23.0035 7.65206 23.0035Z" fill="#3C87D0"/>
<path d="M10.0917 23.0035C12.9717 26.6501 17.4307 28.9947 22.4274 28.9947C27.4241 28.9947 31.8832 26.6501 34.7632 23.0035H10.0917Z" fill="#3C87D0"/>
<path d="M22.4274 25.5214C29.1873 25.5214 34.6673 20.0414 34.6673 13.2815C34.6673 6.52161 29.1873 1.04163 22.4274 1.04163C15.6675 1.04163 10.1875 6.52161 10.1875 13.2815C10.1875 20.0414 15.6675 25.5214 22.4274 25.5214Z" fill="#FF9A42"/>
<path d="M13.0356 13.2815C13.0356 7.00334 17.7626 1.83025 23.8514 1.12456C23.3841 1.07038 22.9091 1.04163 22.4274 1.04163C15.6675 1.04163 10.1875 6.52158 10.1875 13.2815C10.1875 20.0414 15.6675 25.5214 22.4274 25.5214C22.9091 25.5214 23.3841 25.4926 23.8514 25.4385C17.7626 24.7328 13.0356 19.5597 13.0356 13.2815Z" fill="#FF7A3C"/>
<path d="M36.4551 44.4825H40.7837C41.1672 44.4825 41.4783 44.1715 41.4783 43.7879V39.6307C41.4783 39.2472 41.1672 38.9362 40.7837 38.9362H36.4551C36.0715 38.9362 35.7605 39.2472 35.7605 39.6307V43.7879C35.7605 44.1715 36.0715 44.4825 36.4551 44.4825Z" fill="#FFD772"/>
<path d="M31.5428 51.7072V51.191C31.5428 51.0295 31.4494 50.8825 31.3033 50.8139L22.1398 46.5075C21.9449 46.4159 21.8204 46.2199 21.8204 46.0046V41.9066C21.8204 40.5477 20.7638 39.3875 19.4057 39.342H19.2344C17.8762 39.3875 16.8196 40.5476 16.8196 41.9066V46.0046C16.8196 46.2199 16.6951 46.4159 16.5002 46.5075L7.33678 50.8139C7.19064 50.8826 7.09729 51.0295 7.09729 51.191V51.7072C7.09729 51.9374 7.28385 52.124 7.51404 52.124H16.2639C16.5708 52.124 16.8196 52.3728 16.8196 52.6796V56.932C16.8196 57.1436 16.6994 57.3368 16.5095 57.4304L14.5936 58.3746C13.8539 58.7393 13.3855 59.4924 13.3855 60.317V62.9225C13.3855 63.1224 13.5902 63.2568 13.7736 63.1775L17.9411 61.3747C18.821 60.994 19.8189 60.994 20.6987 61.3747L24.8662 63.1775C25.0495 63.2568 25.2543 63.1224 25.2543 62.9225V60.3171C25.2543 59.4924 24.7859 58.7393 24.0462 58.3748L22.1302 57.4306C21.9405 57.3371 21.8202 57.1437 21.8202 56.9321V52.6798C21.8202 52.3729 22.069 52.1241 22.3758 52.1241H31.1257C31.3562 52.124 31.5428 51.9374 31.5428 51.7072Z" fill="#5F99D7"/>
<path d="M67.3359 21.9618H52.3444C51.4007 21.9618 50.4942 22.3091 49.792 22.9396L47.4975 25C46.836 25.594 45.8384 25.5939 45.177 25L42.8826 22.9395C42.1803 22.309 41.2739 21.9617 40.3301 21.9617H36.2438C35.6684 21.9617 35.2019 22.4281 35.2019 23.0035C35.2019 23.5789 35.6684 24.0454 36.2438 24.0454H40.3302C40.7592 24.0454 41.1712 24.2032 41.4905 24.4898L43.785 26.5502C45.2402 27.857 47.4348 27.8571 48.89 26.5502L51.1843 24.4898C51.5035 24.2032 51.9156 24.0453 52.3445 24.0453H67.3359C68.2935 24.0453 69.0724 24.8242 69.0724 25.7817V31.7898H51.0466C50.4713 31.7898 50.0048 32.2563 50.0048 32.8317C50.0048 33.4071 50.4713 33.8736 51.0466 33.8736H69.0724V67.305C69.0724 68.2625 68.2935 69.0414 67.3359 69.0414H52.3444C51.9154 69.0414 51.5034 68.8836 51.1842 68.597L48.8897 66.5365C47.4344 65.2297 45.24 65.2298 43.7847 66.5365L41.4905 68.5969C41.1712 68.8835 40.7592 69.0414 40.3302 69.0414H3.85132C2.89377 69.0414 2.11487 68.2625 2.11487 67.305V33.8737H41.617C42.1924 33.8737 42.6589 33.4072 42.6589 32.8318C42.6589 32.2565 42.1924 31.79 41.617 31.79H2.11487V25.7819C2.11487 24.8243 2.89377 24.0454 3.85132 24.0454H9.08845C9.66384 24.0454 10.1303 23.5789 10.1303 23.0035C10.1303 22.4281 9.66384 21.9617 9.08845 21.9617H3.85132C1.7448 21.9617 0.0311279 23.6753 0.0311279 25.7819V67.305C0.0311279 69.4115 1.7448 71.1252 3.85132 71.1252H40.3302C41.2739 71.1252 42.1805 70.7779 42.8827 70.1473L45.1772 68.0868C45.8385 67.4931 46.8361 67.4928 47.4976 68.0868L49.7921 70.1473C50.4943 70.7779 51.4009 71.1252 52.3445 71.1252H67.3359C69.4425 71.1252 71.1561 69.4115 71.1561 67.305V25.782C71.1561 23.6755 69.4425 21.9618 67.3359 21.9618Z" fill="black"/>
<path d="M20.6211 9.67238C20.6211 7.84328 19.2754 6.35535 17.6213 6.35535C15.9673 6.35535 14.6216 7.84328 14.6216 9.67238C14.6216 11.5014 15.9673 12.9893 17.6213 12.9893C19.2754 12.9894 20.6211 11.5014 20.6211 9.67238ZM17.6213 10.9057C17.1248 10.9057 16.7053 10.341 16.7053 9.67252C16.7053 9.00392 17.1248 8.43923 17.6213 8.43923C18.1178 8.43923 18.5373 9.00392 18.5373 9.67252C18.5373 10.3408 18.118 10.9057 17.6213 10.9057Z" fill="black"/>
<path d="M27.2333 20.2083C28.8873 20.2083 30.233 18.7204 30.233 16.8913C30.233 15.0621 28.8873 13.5742 27.2333 13.5742C25.5792 13.5742 24.2335 15.0621 24.2335 16.8913C24.2335 18.7204 25.5793 20.2083 27.2333 20.2083ZM27.2333 15.658C27.7298 15.658 28.1493 16.2227 28.1493 16.8913C28.1493 17.5599 27.7298 18.1246 27.2333 18.1246C26.7368 18.1246 26.3173 17.5599 26.3173 16.8913C26.3173 16.2227 26.7368 15.658 27.2333 15.658Z" fill="black"/>
<path d="M22.4273 26.5635C29.7509 26.5635 35.709 20.6053 35.709 13.2818C35.709 9.30348 33.9474 5.56803 30.8761 3.03337C30.4323 2.66719 29.7756 2.72998 29.4093 3.17381C29.043 3.61765 29.1059 4.27431 29.5498 4.64063C32.1399 6.77813 33.6253 9.92777 33.6253 13.2819C33.6253 19.4566 28.6018 24.4799 22.4273 24.4799C16.2527 24.4799 11.2292 19.4564 11.2292 13.2819C11.2292 7.10736 16.2527 2.08388 22.4273 2.08388C23.4841 2.08388 24.5296 2.23071 25.5344 2.52035C26.0874 2.67997 26.6648 2.36074 26.8241 1.80785C26.9834 1.25497 26.6645 0.677493 26.1116 0.518157C24.919 0.174201 23.6795 0 22.4273 0C15.1038 0 9.14551 5.95824 9.14551 13.2818C9.14551 20.6054 15.1038 26.5635 22.4273 26.5635Z" fill="black"/>
<path d="M19.6736 19.9002C19.8053 19.9555 19.942 19.9817 20.0763 19.9817C20.4835 19.9817 20.8701 19.7415 21.0375 19.3426L25.8816 7.80025C26.1043 7.26973 25.8547 6.65905 25.3241 6.43637C24.7936 6.21383 24.1829 6.46332 23.9603 6.99384L19.1161 18.5362C18.8934 19.0669 19.1431 19.6776 19.6736 19.9002Z" fill="black"/>
<path d="M46.2216 34.7575C46.7969 34.7575 47.2634 34.291 47.2634 33.7157V31.1652C47.2634 30.5898 46.7969 30.1233 46.2216 30.1233C45.6462 30.1233 45.1797 30.5898 45.1797 31.1652V33.7157C45.1797 34.291 45.6462 34.7575 46.2216 34.7575Z" fill="black"/>
<path d="M45.1797 40.7672C45.1797 41.3426 45.6462 41.809 46.2216 41.809C46.7969 41.809 47.2634 41.3426 47.2634 40.7672V38.2167C47.2634 37.6413 46.7969 37.1748 46.2216 37.1748C45.6462 37.1748 45.1797 37.6413 45.1797 38.2167V40.7672Z" fill="black"/>
<path d="M45.1797 47.8184C45.1797 48.3938 45.6462 48.8603 46.2216 48.8603C46.7969 48.8603 47.2634 48.3938 47.2634 47.8184V45.2679C47.2634 44.6926 46.7969 44.2261 46.2216 44.2261C45.6462 44.2261 45.1797 44.6926 45.1797 45.2679V47.8184Z" fill="black"/>
<path d="M45.1797 54.8698C45.1797 55.4452 45.6462 55.9117 46.2216 55.9117C46.7969 55.9117 47.2634 55.4452 47.2634 54.8698V52.3193C47.2634 51.7439 46.7969 51.2775 46.2216 51.2775C45.6462 51.2775 45.1797 51.7439 45.1797 52.3193V54.8698Z" fill="black"/>
<path d="M45.1797 61.9212C45.1797 62.4966 45.6462 62.9631 46.2216 62.9631C46.7969 62.9631 47.2634 62.4966 47.2634 61.9212V59.3707C47.2634 58.7953 46.7969 58.3289 46.2216 58.3289C45.6462 58.3289 45.1797 58.7953 45.1797 59.3707V61.9212Z" fill="black"/>
<path d="M51.0465 39.978H65.0492C65.6246 39.978 66.0911 39.5115 66.0911 38.9362C66.0911 38.3608 65.6246 37.8943 65.0492 37.8943H51.0465C50.4711 37.8943 50.0046 38.3608 50.0046 38.9362C50.0046 39.5115 50.4711 39.978 51.0465 39.978Z" fill="black"/>
<path d="M51.0465 45.5245H65.0492C65.6246 45.5245 66.0911 45.0581 66.0911 44.4827C66.0911 43.9073 65.6246 43.4408 65.0492 43.4408H51.0465C50.4711 43.4408 50.0046 43.9073 50.0046 44.4827C50.0046 45.0581 50.4711 45.5245 51.0465 45.5245Z" fill="black"/>
<path d="M36.4548 45.5244H40.7835C41.741 45.5244 42.5199 44.7455 42.5199 43.7879V39.6307C42.5199 38.6732 41.741 37.8943 40.7835 37.8943H36.4548C35.4973 37.8943 34.7184 38.6732 34.7184 39.6307V43.7879C34.7184 44.7453 35.4974 45.5244 36.4548 45.5244ZM36.8021 39.978H40.4362V43.4406H36.8021V39.978Z" fill="black"/>
<path d="M51.0465 51.0708H65.0492C65.6246 51.0708 66.0911 50.6043 66.0911 50.0289C66.0911 49.4535 65.6246 48.9871 65.0492 48.9871H51.0465C50.4711 48.9871 50.0046 49.4535 50.0046 50.0289C50.0046 50.6043 50.4711 51.0708 51.0465 51.0708Z" fill="black"/>
<path d="M51.0465 56.6171H65.0492C65.6246 56.6171 66.0911 56.1506 66.0911 55.5752C66.0911 54.9998 65.6246 54.5333 65.0492 54.5333H51.0465C50.4711 54.5333 50.0046 54.9998 50.0046 55.5752C50.0046 56.1506 50.4711 56.6171 51.0465 56.6171Z" fill="black"/>
<path d="M51.0465 62.1633H65.0492C65.6246 62.1633 66.0911 61.6968 66.0911 61.1215C66.0911 60.5461 65.6246 60.0796 65.0492 60.0796H51.0465C50.4711 60.0796 50.0046 60.5461 50.0046 61.1215C50.0046 61.6968 50.4711 62.1633 51.0465 62.1633Z" fill="black"/>
<path d="M41.9059 48.9871H35.7603C35.1849 48.9871 34.7184 49.4535 34.7184 50.0289C34.7184 50.6043 35.1849 51.0708 35.7603 51.0708H41.9059C42.4813 51.0708 42.9478 50.6043 42.9478 50.0289C42.9478 49.4535 42.4813 48.9871 41.9059 48.9871Z" fill="black"/>
<path d="M41.9059 54.5333H35.7603C35.1849 54.5333 34.7184 54.9998 34.7184 55.5752C34.7184 56.1506 35.1849 56.6171 35.7603 56.6171H41.9059C42.4813 56.6171 42.9478 56.1506 42.9478 55.5752C42.9478 54.9998 42.4813 54.5333 41.9059 54.5333Z" fill="black"/>
<path d="M31.126 53.1661C31.9303 53.1661 32.5846 52.5118 32.5846 51.7075V51.1913C32.5846 50.6287 32.2557 50.1105 31.7464 49.8711L22.8623 45.696V41.9068C22.8623 39.9816 21.3273 38.364 19.4405 38.301C19.429 38.3006 19.4173 38.3004 19.4058 38.3004H19.2345C19.223 38.3004 19.2113 38.3006 19.1998 38.301C17.3129 38.364 15.7779 39.9816 15.7779 41.9068V45.696L6.89376 49.8711C6.3845 50.1105 6.05554 50.6287 6.05554 51.1913V51.7075C6.05554 52.5118 6.70984 53.1661 7.51416 53.1661H15.7779V56.63L14.1332 57.4405C13.0295 57.9845 12.3439 59.087 12.3439 60.3174V62.9229C12.3439 63.3688 12.5664 63.7811 12.939 64.0259C13.158 64.1698 13.4096 64.243 13.6629 64.243C13.8404 64.243 14.0189 64.207 14.1874 64.1341L18.3549 62.3312C18.9683 62.0659 19.6718 62.0659 20.2853 62.3312L24.4527 64.1341C24.8619 64.311 25.3286 64.2706 25.7013 64.0257C26.0739 63.7809 26.2964 63.3686 26.2964 62.9227V60.3174C26.2964 59.0868 25.6108 57.9844 24.5069 57.4404L22.8623 56.63V53.1661H31.126ZM21.6698 58.3652L23.5858 59.3094C23.9725 59.5 24.2127 59.8862 24.2127 60.3172V61.7599L21.1127 60.4188C20.543 60.1723 19.9317 60.0491 19.3201 60.0491C18.7087 60.0491 18.0971 60.1723 17.5276 60.4188L14.4276 61.7597V60.3174C14.4276 59.8863 14.6678 59.5001 15.0544 59.3095L16.9703 58.3653C17.5201 58.0943 17.8616 57.5453 17.8616 56.9324V52.68C17.8616 51.7992 17.1449 51.0825 16.2641 51.0825H9.2156L16.9434 47.4508C17.5011 47.1887 17.8615 46.6212 17.8615 46.005V41.9069C17.8615 41.0982 18.4849 40.4185 19.2544 40.3843H19.3858C20.1552 40.4185 20.7786 41.0982 20.7786 41.9069V46.005C20.7786 46.6213 21.139 47.1888 21.6967 47.4508L29.4246 51.0826H22.3761C21.4952 51.0826 20.7786 51.7993 20.7786 52.6802V56.9325C20.7786 57.5451 21.1202 58.0943 21.6698 58.3652Z" fill="black"/>
</g>
</g>
</g>
<defs>
<clipPath id="clip0_22_4731">
<rect width="71.125" height="71.125" fill="white" transform="translate(0.03125)"/>
</clipPath>
<clipPath id="clip1_22_4731">
<rect width="71.125" height="71.125" fill="white" transform="translate(0.03125)"/>
</clipPath>
<clipPath id="clip2_22_4731">
<rect width="71.125" height="71.125" fill="white" transform="translate(0.03125)"/>
</clipPath>
</defs>
</svg>
