<svg width="69" height="68" viewBox="0 0 69 68" fill="none" xmlns="http://www.w3.org/2000/svg">
<g clip-path="url(#clip0_22_4801)">
<path d="M59.8649 37.271H9.98315C8.80962 37.271 7.85815 38.2225 7.85815 39.396C7.85815 40.5695 8.80962 41.521 9.98315 41.521H59.8646C61.0381 41.521 61.9896 40.5695 61.9896 39.396C61.9899 38.2225 61.0384 37.271 59.8649 37.271Z" fill="#E2E2E2"/>
<path d="M11.8433 39.3962C11.8433 38.2227 12.7947 37.2712 13.9683 37.2712H9.98389C8.81036 37.2712 7.85889 38.2227 7.85889 39.3962C7.85889 40.5698 8.81036 41.5212 9.98389 41.5212H13.9683C12.7947 41.5212 11.8433 40.5698 11.8433 39.3962Z" fill="#AFAFAF"/>
<path d="M58.0063 39.3964C58.0063 38.2228 57.0549 37.2714 55.8813 37.2714H59.8657C61.0393 37.2714 61.9907 38.2228 61.9907 39.3964C61.9907 40.5699 61.0393 41.5214 59.8657 41.5214H55.8813C57.0549 41.5214 58.0063 40.5699 58.0063 39.3964Z" fill="#E2E2E2"/>
<path d="M10.989 41.5214H58.8573V58.6536H10.989V41.5214Z" fill="#CECECE"/>
<path d="M10.9905 41.5211H14.9749V58.6534H10.9905V41.5211Z" fill="#AFAFAF"/>
<path d="M54.875 41.5212H58.8594V58.6535H54.875V41.5212Z" fill="#E2E2E2"/>
<path d="M38.7068 35.8938C38.4914 35.8938 38.2728 35.8587 38.0579 35.7846L31.4032 33.4917C30.9511 33.3361 30.5699 33.0226 30.3298 32.6093L26.5273 26.0667C25.9746 25.1155 26.2976 23.8963 27.2488 23.3433C28.1997 22.7902 29.4189 23.1135 29.9722 24.0647L33.4023 29.9664L39.356 32.0178C40.3962 32.3761 40.9489 33.5101 40.5903 34.5502C40.3061 35.3753 39.5337 35.8938 38.7068 35.8938Z" fill="#63BCE7"/>
<path d="M19.5214 17.3066C20.2511 17.3066 20.8426 16.7151 20.8426 15.9854C20.8426 15.2557 20.2511 14.6642 19.5214 14.6642C18.7917 14.6642 18.2002 15.2557 18.2002 15.9854C18.2002 16.7151 18.7917 17.3066 19.5214 17.3066Z" fill="#F87023"/>
<path d="M30.4286 37.2711L16.1762 37.2203L16.1255 25.5214C16.1255 23.7983 17.5224 22.4014 19.2455 22.4014H27.3086C29.0317 22.4014 30.4286 23.7983 30.4286 25.5214V37.2711Z" fill="#63BCE7"/>
<path d="M23.2299 22.4015H19.2455C17.5224 22.4015 16.1255 23.7984 16.1255 25.5215V36.9713L20.1099 37.2712V25.5215C20.1099 23.7984 21.5065 22.4015 23.2299 22.4015Z" fill="#6377E7"/>
<path d="M23.5101 24.5758C22.314 24.5758 21.3445 23.6062 21.3445 22.4101V18.8154C21.3445 17.6193 22.314 16.6498 23.5101 16.6498C24.7062 16.6498 25.6758 17.6193 25.6758 18.8154V22.4101C25.6758 23.6062 24.7062 24.5758 23.5101 24.5758Z" fill="#F8AF23"/>
<path d="M23.2051 22.4101V18.8154C23.2051 17.9527 23.7108 17.21 24.441 16.8617C24.1589 16.7273 23.8447 16.6498 23.5113 16.6498C22.3152 16.6498 21.3457 17.6193 21.3457 18.8154V22.4101C21.3457 23.6062 22.3152 24.5758 23.5113 24.5758C23.8447 24.5758 24.1589 24.4982 24.441 24.3638C23.7108 24.0156 23.2051 23.2729 23.2051 22.4101Z" fill="#F87023"/>
<path d="M35.5491 24.814H57.9455V37.2712H35.5491V24.814Z" fill="#CECECE"/>
<path d="M53.9622 24.8138H57.9465V37.2711H53.9622V24.8138Z" fill="#E2E2E2"/>
<path d="M29.594 35.2988H35.5496V37.2711H29.594V35.2988Z" fill="#CECECE"/>
<path d="M24.2208 21.0688C21.7417 21.0688 19.7317 19.0591 19.7317 16.5798V13.3862C19.7317 10.9071 21.7414 8.89709 24.2208 8.89709C26.6998 8.89709 28.7098 10.9068 28.7098 13.3862V16.5798C28.7095 19.0591 26.6998 21.0688 24.2208 21.0688Z" fill="#F8AF23"/>
<path d="M23.7173 16.5801V13.3865C23.7173 11.6238 24.7357 10.1028 26.2142 9.36839C25.6133 9.06983 24.9386 8.89771 24.222 8.89771C21.7429 8.89771 19.7329 10.9074 19.7329 13.3865V16.5801C19.7329 19.0592 21.7426 21.0692 24.222 21.0692C24.9386 21.0692 25.6133 20.897 26.2142 20.5985C24.7357 19.864 23.7173 18.3428 23.7173 16.5801Z" fill="#F87023"/>
<path d="M15.811 32.8251L18.9348 25.3284C19.3582 24.3126 18.8777 23.1463 17.8622 22.7231C16.8467 22.3008 15.6804 22.7802 15.257 23.796L11.063 33.8618C10.8157 34.455 10.8699 35.131 11.2086 35.6774C11.5472 36.2238 12.1282 36.5731 12.7694 36.6158L21.8272 37.2196L22.1948 33.2509L15.811 32.8251Z" fill="#63BCE7"/>
<path d="M15.1929 35.6774C14.8545 35.131 14.8001 34.4549 15.0474 33.8618L19.0591 24.234C18.9491 23.5811 18.5186 22.997 17.8622 22.7234C16.8467 22.301 15.6804 22.7805 15.2569 23.7962L11.063 33.8621C10.8157 34.4552 10.8699 35.1312 11.2086 35.6776C11.5472 36.224 12.1282 36.5733 12.7694 36.6161L21.8272 37.2198L21.8516 36.9558L16.7537 36.6158C16.1125 36.573 15.5316 36.2237 15.1929 35.6774Z" fill="#6377E7"/>
<path d="M22.9684 37.2914C24.008 37.2914 24.8838 36.4841 24.9542 35.4317C25.0272 34.3339 24.1966 33.3846 23.099 33.3115L22.1938 33.2512L21.8262 37.2199L22.834 37.2871C22.8791 37.2898 22.9237 37.2914 22.9684 37.2914Z" fill="#F8AF23"/>
<path d="M22.6292 16.2875C22.9234 16.2875 23.1619 16.049 23.1619 15.7548C23.1619 15.4606 22.9234 15.222 22.6292 15.222C22.3349 15.222 22.0964 15.4606 22.0964 15.7548C22.0964 16.049 22.3349 16.2875 22.6292 16.2875Z" fill="#3F3679"/>
<path d="M26.3618 16.2875C26.656 16.2875 26.8946 16.049 26.8946 15.7548C26.8946 15.4606 26.656 15.222 26.3618 15.222C26.0676 15.222 25.8291 15.4606 25.8291 15.7548C25.8291 16.049 26.0676 16.2875 26.3618 16.2875Z" fill="#3F3679"/>
<path d="M19.7317 13.287V12.03C19.7317 9.71699 21.607 7.84167 23.9201 7.84167H28.87C29.8717 7.84167 30.6837 8.65369 30.6837 9.65536C30.6837 11.6611 29.0578 13.287 27.052 13.287H19.7317Z" fill="#707070"/>
<path d="M27.9057 7.84167H23.9213C21.6082 7.84167 19.7329 9.71699 19.7329 12.03V13.287H23.7173V12.03C23.7173 9.71699 25.5923 7.84167 27.9057 7.84167Z" fill="#5B5B5B"/>
<path d="M48.1525 13.5694L51.149 20.142L52.3332 17.3044L50.5259 11.3246L52.8652 9.11197C53.0865 8.90266 53.2414 8.63278 53.3104 8.33608C53.5707 7.217 52.5667 6.21294 51.4473 6.47299C51.1506 6.54205 50.8807 6.69691 50.6714 6.91817L48.4588 9.25753L42.479 7.45022L39.6414 8.63438L46.214 11.6309L42.8007 15.2397L39.9737 15.2514L42.5797 17.2037L44.532 19.8098L44.5437 16.9827L48.1525 13.5694Z" fill="#63BCE7"/>
<path d="M8.18219 61.1697H3.40015C3.18021 61.1697 3.00171 61.3482 3.00171 61.5681C3.00171 61.7881 3.18021 61.9666 3.40015 61.9666H8.18219C8.40213 61.9666 8.58063 61.7881 8.58063 61.5681C8.58063 61.3482 8.40213 61.1697 8.18219 61.1697Z" fill="#3F3679"/>
<path d="M66.4485 61.1698H61.6665C61.4466 61.1698 61.2681 61.3483 61.2681 61.5682C61.2681 61.7882 61.4466 61.9667 61.6665 61.9667H66.4485C66.6685 61.9667 66.847 61.7882 66.847 61.5682C66.847 61.3483 66.6685 61.1698 66.4485 61.1698Z" fill="#3F3679"/>
<path d="M58.9578 61.1698H10.8909C10.6709 61.1698 10.4924 61.3483 10.4924 61.5682C10.4924 61.7882 10.6709 61.9667 10.8909 61.9667H58.9581C59.178 61.9667 59.3565 61.7882 59.3565 61.5682C59.3565 61.3483 59.178 61.1698 58.9578 61.1698Z" fill="#3F3679"/>
<path d="M3.40015 59.0519H10.9901H58.8587H66.4486C66.6686 59.0519 66.8471 58.8734 66.8471 58.6535C66.8471 58.4335 66.6686 58.255 66.4486 58.255H59.2571V41.9196H59.8651C61.2565 41.9196 62.3885 40.7875 62.3885 39.3962C62.3885 38.0048 61.2565 36.8727 59.8651 36.8727H58.3441V24.8139C58.3441 24.5939 58.1656 24.4154 57.9457 24.4154H35.5493C35.3293 24.4154 35.1508 24.5939 35.1508 24.8139V30.1471L33.6724 29.6376L30.7067 24.535C30.696 24.5169 30.6833 24.5012 30.6705 24.4853C30.2272 23.0493 28.8877 22.0028 27.3083 22.0028H26.075V21.0996C27.8528 20.3679 29.1087 18.6184 29.1087 16.5798V13.3864C29.1087 13.2969 29.106 13.2082 29.1015 13.12C30.2854 12.4172 31.0828 11.1294 31.0828 9.65573C31.0828 8.43598 30.0904 7.4436 28.8707 7.4436H23.9207C21.3917 7.4436 19.3337 9.50113 19.3337 12.0304V13.0393V13.2876V14.2771C18.4741 14.3714 17.8026 15.1016 17.8026 15.9858C17.8026 16.9158 18.5456 17.6741 19.4686 17.7026C19.6997 18.6811 20.2251 19.5447 20.9468 20.1984V22.0033H19.2449C18.7581 22.0033 18.2871 22.1021 17.8443 22.2947C16.67 21.9069 15.3721 22.4836 14.8887 23.643L10.6947 33.7089C10.3988 34.4191 10.4642 35.2336 10.8693 35.8875C11.1559 36.3497 11.591 36.6921 12.0917 36.8733H9.98366C8.59232 36.8733 7.46022 38.0054 7.46022 39.3967C7.46022 40.788 8.59232 41.9201 9.98366 41.9201H10.5917V58.2555H3.40015C3.18021 58.2555 3.00171 58.434 3.00171 58.654C3.00171 58.8739 3.18021 59.0519 3.40015 59.0519ZM35.948 25.2123H57.5475V36.8727H35.948V35.2989V25.2123ZM29.9924 36.8727V35.6973H35.1511V36.8727H29.9924ZM30.8267 33.6565C30.9686 33.7413 31.1173 33.8146 31.2738 33.8682L34.27 34.9007H30.8267V33.6565ZM33.2726 30.3426L35.1508 30.9899V34.3615L31.533 33.1149C31.2916 33.0318 31.0711 32.8897 30.8955 32.7045C30.8753 32.6833 30.8501 32.6719 30.8267 32.6562V26.3277L33.0577 30.1665C33.1058 30.2491 33.182 30.3115 33.2726 30.3426ZM20.1308 12.0302C20.1308 9.94048 21.8308 8.24021 23.921 8.24021H28.8709C29.6513 8.24021 30.2862 8.87532 30.2862 9.65546C30.2862 11.4383 28.8359 12.8886 27.053 12.8886H20.1308V12.0302ZM18.5997 15.9853C18.5997 15.5412 18.9153 15.1696 19.3339 15.0824V16.5803C19.3339 16.6852 19.3432 16.7875 19.3496 16.8906C18.9233 16.809 18.5997 16.4347 18.5997 15.9853ZM20.1308 16.58V13.6855H27.053C27.4929 13.6855 27.9155 13.6122 28.3121 13.4813V16.5798C28.3121 18.8352 26.4771 20.6701 24.2217 20.6701C21.9657 20.6704 20.1308 18.8355 20.1308 16.58ZM24.2214 21.4673C24.5845 21.4673 24.9376 21.4245 25.2783 21.3491V22.4102C25.2783 23.3846 24.4857 24.1772 23.5114 24.1772C22.5368 24.1772 21.7442 23.3846 21.7442 22.4102V20.7857C22.4715 21.216 23.3167 21.4673 24.2214 21.4673ZM20.9797 22.7999C21.1683 24.029 22.23 24.9743 23.5111 24.9743C24.792 24.9743 25.8534 24.029 26.0423 22.7999H27.3083C28.8088 22.7999 30.0299 24.021 30.0299 25.5215V34.9007H29.5937C29.3738 34.9007 29.1953 35.0792 29.1953 35.2992V36.873H24.7633C25.0991 36.4905 25.3163 35.9999 25.3527 35.4583C25.4401 34.1429 24.4414 33.0015 23.1263 32.9139L22.221 32.8533L16.3927 32.4647L19.3023 25.4819C19.6907 24.5499 19.4412 23.5105 18.757 22.8464C18.9169 22.8174 19.0795 22.7999 19.2452 22.7999H20.9797ZM22.6157 36.8727L22.2614 36.8491L22.553 33.6982L22.5552 33.6741L23.0731 33.7089C23.95 33.7673 24.6159 34.5281 24.5572 35.4051C24.507 36.1579 23.9335 36.7617 23.2086 36.8727H22.6157ZM11.5469 35.4673C11.2765 35.0312 11.2329 34.4882 11.4305 34.0149L15.6245 23.949C15.8792 23.3375 16.4734 22.9686 17.0984 22.9686C17.3022 22.9686 17.5091 23.0076 17.7086 23.0908C18.5198 23.4286 18.9047 24.3639 18.5665 25.1751L15.4428 32.6719C15.3934 32.7906 15.404 32.9258 15.4717 33.035C15.5395 33.1441 15.6556 33.2143 15.7841 33.2228L21.7599 33.6212L21.4682 36.7721L21.4661 36.7962L12.7953 36.218C12.284 36.1842 11.817 35.9035 11.5469 35.4673ZM8.2571 39.3962C8.2571 38.4442 9.03166 37.6696 9.98366 37.6696H29.5937H35.5493H57.9457H59.8651C60.8171 37.6696 61.5917 38.4442 61.5917 39.3962C61.5917 40.3482 60.8171 41.1227 59.8651 41.1227H58.8587H10.9904H9.98393C9.03166 41.1227 8.2571 40.3482 8.2571 39.3962ZM11.3888 41.9196H58.4605V58.255H11.3888V41.9196Z" fill="#3F3679"/>
<path d="M24.4976 17.7046C24.7175 17.7046 24.896 17.5261 24.896 17.3062V15.9852C24.896 15.7653 24.7175 15.5868 24.4976 15.5868C24.2776 15.5868 24.0991 15.7653 24.0991 15.9852V17.3064C24.0991 17.5261 24.2776 17.7046 24.4976 17.7046Z" fill="#3F3679"/>
<path d="M22.001 14.9506H23.2592C23.4792 14.9506 23.6577 14.7721 23.6577 14.5521C23.6577 14.3322 23.4792 14.1537 23.2592 14.1537H22.001C21.781 14.1537 21.6025 14.3322 21.6025 14.5521C21.6025 14.7721 21.781 14.9506 22.001 14.9506Z" fill="#3F3679"/>
<path d="M25.7334 14.9507H26.9917C27.2116 14.9507 27.3901 14.7722 27.3901 14.5522C27.3901 14.3323 27.2116 14.1538 26.9917 14.1538H25.7334C25.5135 14.1538 25.335 14.3323 25.335 14.5522C25.335 14.7722 25.5135 14.9507 25.7334 14.9507Z" fill="#3F3679"/>
<path d="M23.3535 18.8647C23.6398 19.2018 24.0569 19.3949 24.4978 19.3949C24.9382 19.3949 25.3555 19.2015 25.6418 18.8647C25.7842 18.6968 25.7638 18.4455 25.5962 18.3029C25.4283 18.1608 25.177 18.1812 25.0344 18.3486C24.765 18.6663 24.2306 18.666 23.9612 18.3486C23.8189 18.1812 23.5676 18.1608 23.3994 18.3029C23.2316 18.4453 23.2111 18.6968 23.3535 18.8647Z" fill="#3F3679"/>
<path d="M39.4755 8.99752L45.5405 11.7624L42.6277 14.8423L39.9714 14.8532C39.8001 14.854 39.6484 14.964 39.5947 15.1265C39.5408 15.2888 39.5971 15.4679 39.7339 15.5704L42.2943 17.4885L44.2124 20.0491C44.3149 20.1867 44.495 20.243 44.6562 20.1883C44.8188 20.1346 44.9288 19.983 44.9296 19.8116L44.9404 17.1551L48.0204 14.2423L50.7853 20.3076C50.8501 20.4497 50.9919 20.5408 51.1478 20.5408H51.1542C51.3125 20.5381 51.4544 20.442 51.5152 20.2959L52.6996 17.4579C52.7355 17.3727 52.74 17.2776 52.7134 17.1891L50.9776 11.445L53.1382 9.40153C53.4171 9.1375 53.6104 8.80016 53.6973 8.42642C53.8508 7.76608 53.6564 7.08528 53.1767 6.60583C52.6972 6.12611 52.0167 5.93194 51.3561 6.08521C50.9824 6.17207 50.645 6.36571 50.381 6.64461L48.3375 8.8052L42.5934 7.06935C42.5047 7.04225 42.4098 7.04783 42.3246 7.08289L39.4869 8.26705C39.3408 8.32814 39.2447 8.46999 39.242 8.6283C39.2393 8.78661 39.3312 8.93164 39.4755 8.99752ZM42.4999 7.87366L48.3428 9.63927C48.4873 9.68416 48.6438 9.64166 48.7474 9.53169L50.96 7.19233C51.1162 7.02711 51.3154 6.91263 51.5367 6.86136C51.9272 6.77025 52.3299 6.8858 52.6136 7.16922C52.8972 7.45264 53.0123 7.85533 52.9214 8.24606C52.8702 8.46733 52.7557 8.66655 52.5904 8.82274L50.2511 11.0354C50.1417 11.1393 50.0999 11.2957 50.1438 11.4399L51.9094 17.2829L51.1316 19.1465L48.5142 13.4045C48.4608 13.2876 48.354 13.2032 48.2278 13.1785C48.2023 13.1734 48.1771 13.1713 48.1516 13.1713C48.0507 13.1713 47.9524 13.2098 47.878 13.2802L44.2692 16.6935C44.1898 16.7684 44.1449 16.8725 44.1444 16.9814L44.1377 18.6203L42.8978 16.9652C42.8752 16.9349 42.8481 16.9078 42.8178 16.8853L41.163 15.6453L42.8016 15.6387C42.9105 15.6381 43.0147 15.5933 43.0896 15.5138L46.5029 11.905C46.5913 11.8115 46.6293 11.6811 46.6046 11.5552C46.5799 11.4288 46.4957 11.3223 46.3785 11.2689L40.6368 8.65141L42.4999 7.87366Z" fill="#3F3679"/>
</g>
<defs>
<clipPath id="clip0_22_4801">
<rect width="68" height="68" fill="white" transform="translate(0.925293 0.00012207)"/>
</clipPath>
</defs>
</svg>
