<svg width="76" height="76" viewBox="0 0 76 76" fill="none" xmlns="http://www.w3.org/2000/svg">
<g clip-path="url(#clip0_22_4889)">
<path fill-rule="evenodd" clip-rule="evenodd" d="M62.4237 69.7418C62.5049 69.7776 62.5722 69.8389 62.6154 69.9165C62.6586 69.994 62.6754 70.0835 62.6631 70.1714V70.1764L62.3968 71.9928L62.3911 72.0124C62.3795 72.0595 62.3601 72.1044 62.3335 72.145C62.004 72.6405 61.5639 73.0527 61.0478 73.349C60.5318 73.6454 59.9539 73.8177 59.3599 73.8524C59.349 73.8539 59.338 73.8548 59.327 73.855C59.3045 73.8561 59.2821 73.858 59.2595 73.8605C58.282 73.9603 57.2951 73.9132 56.3316 73.7207C55.3012 73.5155 54.2983 73.1905 53.3433 72.7524C49.2099 70.7959 45.8813 67.4689 43.9227 63.3364C43.4867 62.3819 43.1643 61.3795 42.962 60.3498C42.7673 59.3909 42.7192 58.408 42.8191 57.4347C42.8207 57.4067 42.8244 57.3808 42.8254 57.3527V57.3452V57.3372C42.8587 56.742 43.0296 56.1626 43.3246 55.6446C43.6196 55.1266 44.0308 54.6841 44.5257 54.3518C44.5793 54.3137 44.6416 54.2897 44.7069 54.2819L46.4908 54.0237C46.5157 54.019 46.5411 54.0165 46.5665 54.0162C46.6415 54.0162 46.7152 54.0367 46.7795 54.0754C46.8438 54.1141 46.8963 54.1696 46.9314 54.236L46.9352 54.2428L48.9239 58.1994L48.9256 58.2029C48.9698 58.2894 48.982 58.3888 48.9601 58.4834C48.9382 58.578 48.8836 58.6619 48.806 58.7203L47.1543 60.0077C46.9056 60.2029 46.7248 60.4716 46.6378 60.7756C46.5507 61.0795 46.5617 61.4032 46.6693 61.7005C47.9395 65.2387 51.4402 68.7427 54.9791 70.0123C55.277 70.1198 55.6013 70.1305 55.9056 70.0428C56.21 69.9551 56.4788 69.7736 56.6739 69.5241L57.963 67.87C58.0226 67.7936 58.107 67.7404 58.2017 67.7196C58.2963 67.6989 58.3953 67.7118 58.4814 67.7563L62.4234 69.7431L62.4237 69.7418ZM35.2509 64.0875H29.742L31.1169 52.3599H33.8771L35.252 64.0875H35.2509ZM32.2545 3.01418C35.2914 3.0098 38.2718 3.83415 40.8748 5.3984C43.4777 6.96266 45.6045 9.20753 47.026 11.8911C48.2638 14.2214 48.1216 15.236 47.7271 17.7578C47.679 18.0646 47.6275 18.3707 47.5824 18.6779C47.4523 19.5619 47.2945 20.4415 47.1091 21.3167L47.0468 21.6096L46.7552 21.5406C46.4128 21.4587 46.062 21.417 45.71 21.4164H44.4551L44.3927 21.2072C44.0461 20.0187 43.637 18.8494 43.167 17.7041C42.8079 16.8169 42.3713 15.9632 41.8624 15.1526C41.1886 14.109 40.2621 13.0571 39.0105 12.7399C37.5324 12.3654 36.2452 13.148 35.2342 14.1706C35.1821 14.2216 35.1364 14.2789 35.0982 14.3411C34.4026 15.5295 33.5179 16.5966 32.4791 17.5006C29.2418 20.2985 24.9133 21.0351 20.7574 20.8731C20.6033 20.8668 20.4503 20.9012 20.3137 20.9728C20.177 21.0444 20.0617 21.1506 19.9791 21.2809L19.8927 21.4164H19.6424C18.9974 21.4163 18.36 21.5557 17.774 21.8253L17.4923 21.9543L17.3792 21.6657C16.4606 19.3204 16.0444 16.8171 16.4366 14.3122L16.4405 14.2864L16.4492 14.2618C17.5869 10.9763 19.7208 8.12718 22.5537 6.1112C25.3866 4.09521 28.7775 3.01264 32.2545 3.01418Z" fill="#5EB2FC"/>
<path fill-rule="evenodd" clip-rule="evenodd" d="M61.0728 59.654H60.6996L61.0728 59.093V59.654ZM63.8164 59.654H63.4225V55.2636C63.4224 55.012 63.3415 54.767 63.1917 54.5649C63.0419 54.3627 62.8312 54.2139 62.5905 54.1405C62.3498 54.0671 62.0919 54.0728 61.8548 54.1569C61.6177 54.2411 61.4138 54.3991 61.2732 54.6078L57.5207 60.1696C57.402 60.3462 57.3336 60.5518 57.3227 60.7643C57.3119 60.9769 57.359 61.1883 57.4591 61.3761C57.5592 61.5639 57.7085 61.7209 57.891 61.8303C58.0735 61.9398 58.2823 61.9976 58.4951 61.9975H61.0732V63.1737C61.0767 63.4831 61.202 63.7785 61.4219 63.9961C61.6419 64.2136 61.9388 64.3356 62.2481 64.3356C62.5575 64.3356 62.8543 64.2136 63.0743 63.9961C63.2942 63.7785 63.4195 63.4831 63.423 63.1737V61.9975H63.8169C64.1277 61.9975 64.4258 61.874 64.6455 61.6542C64.8653 61.4345 64.9888 61.1364 64.9888 60.8256C64.9888 60.5148 64.8653 60.2167 64.6455 59.997C64.4258 59.7772 64.1277 59.6537 63.8169 59.6537L63.8164 59.654ZM58.1914 62.954C58.2024 63.2639 58.0899 63.5655 57.8787 63.7927C57.6675 64.0198 57.3749 64.1538 57.065 64.1654C56.2007 64.1947 55.3372 64.2094 54.4803 64.2094C53.6096 64.2094 52.7457 64.1947 51.8888 64.1654C51.7175 64.1597 51.5495 64.1164 51.3967 64.0388C51.2439 63.9612 51.1099 63.8511 51.0042 63.7162C50.7001 63.3217 50.3339 62.4841 51.3774 61.3119C51.8602 60.8091 52.3724 60.3356 52.9116 59.8938C53.5812 59.3435 54.2138 58.7495 54.8052 58.1158C55.3926 57.4315 55.3718 57.162 55.3718 57.1607C55.3004 56.9077 55.1461 56.6859 54.9338 56.5309C54.7214 56.3759 54.4632 56.2966 54.2004 56.3058C53.9376 56.3149 53.6855 56.4119 53.4845 56.5813C53.2834 56.7507 53.1449 56.9827 53.0913 57.2401C53.0594 57.3908 52.9981 57.5336 52.9109 57.6606C52.8237 57.7876 52.7124 57.8961 52.5833 57.9801C52.4542 58.064 52.3098 58.1217 52.1584 58.1499C52.0069 58.178 51.8515 58.1761 51.7008 58.1441C51.5501 58.1122 51.4072 58.0509 51.2803 57.9637C51.1533 57.8765 51.0448 57.7652 50.9608 57.6361C50.8769 57.507 50.8192 57.3626 50.791 57.2112C50.7629 57.0598 50.7648 56.9043 50.7968 56.7536C50.9601 55.9839 51.3763 55.2911 51.9792 54.7855C52.5821 54.2799 53.3368 53.9906 54.1232 53.9638C54.9095 53.937 55.6822 54.1742 56.3181 54.6376C56.9539 55.101 57.4164 55.7639 57.6317 56.5207C58.1777 58.4558 56.1943 60.1641 54.4384 61.6714C54.3692 61.7322 54.2934 61.7985 54.2103 61.8655C55.1364 61.869 56.0624 61.8558 56.9816 61.8233C57.2917 61.8136 57.5931 61.9271 57.8197 62.139C58.0464 62.3509 58.1799 62.6439 58.191 62.954H58.1914ZM63.4225 67.951C64.4572 67.0084 65.2896 65.8654 65.8693 64.5915C66.4491 63.3175 66.7641 61.9391 66.7953 60.5398C66.8266 59.1405 66.5733 57.7494 66.0509 56.4509C65.5286 55.1524 64.7479 53.9734 63.7564 52.9856C62.7649 51.9977 61.5831 51.2214 60.2826 50.7039C58.9822 50.1863 57.5901 49.9382 56.191 49.9746C54.7918 50.011 53.4145 50.3311 52.1428 50.9156C50.871 51.5001 49.7311 52.3367 48.7923 53.3748L50.7552 57.2725C51.0123 57.7836 51.0846 58.368 50.9599 58.9264C50.8352 59.4848 50.5211 59.9829 50.0709 60.336L48.7371 61.374C49.8637 64.1004 52.5795 66.8177 55.3094 67.9414L56.3459 66.6111C56.6987 66.1611 57.1962 65.8469 57.7541 65.7217C58.3121 65.5965 58.8962 65.668 59.4074 65.9241L63.3536 67.9131C63.3742 67.9248 63.4019 67.938 63.4227 67.951H63.4225ZM62.3721 70.1396C62.3776 70.112 62.3729 70.0833 62.359 70.0588C62.345 70.0343 62.3227 70.0157 62.2961 70.0063L58.3505 68.0168C58.3241 68.0026 58.2934 67.9984 58.2642 68.0052C58.2349 68.0119 58.2091 68.0291 58.1916 68.0534L56.9062 69.7031C56.6733 70.0015 56.3521 70.2186 55.9885 70.3235C55.6248 70.4283 55.2373 70.4156 54.8813 70.287C51.26 68.9878 47.6941 65.4185 46.3948 61.7985C46.2668 61.4431 46.2541 61.0564 46.3583 60.6934C46.4625 60.3303 46.6783 60.0092 46.9753 59.7757L48.627 58.4881C48.6517 58.4703 48.6688 58.4439 48.6752 58.4142C48.6816 58.3845 48.6767 58.3534 48.6616 58.327L46.6781 54.381C46.6686 54.3596 46.6531 54.3415 46.6335 54.3287C46.6139 54.316 46.591 54.3091 46.5676 54.3091C46.5583 54.3095 46.5491 54.3107 46.5399 54.3126L44.7495 54.5711C44.7295 54.5725 44.7103 54.5795 44.6941 54.5912C44.2357 54.8983 43.8549 55.3075 43.5815 55.7867C43.3081 56.2658 43.1496 56.8019 43.1185 57.3527C43.1185 57.3845 43.1116 57.4219 43.1116 57.4565C43.0111 58.4038 43.0577 59.3609 43.2497 60.294C43.447 61.3013 43.7625 62.2818 44.1896 63.2152C46.1186 67.2831 49.3953 70.5586 53.464 72.486C54.3982 72.9147 55.3793 73.2327 56.3873 73.4335C57.322 73.6206 58.2794 73.6665 59.2277 73.5697C59.2552 73.5669 59.2829 73.5642 59.3175 73.5627C59.3175 73.5627 59.3244 73.5627 59.3244 73.5614C59.8762 73.532 60.4135 73.374 60.8935 73.1001C61.3734 72.8261 61.7827 72.4438 62.0887 71.9836C62.0991 71.9674 62.1061 71.9494 62.1095 71.9304L62.3721 70.1391V70.1396ZM40.7827 57.2049C40.8361 56.2929 41.1005 55.4057 41.555 54.6132C42.0094 53.8206 42.6416 53.1443 43.4018 52.6376C43.7052 52.4352 44.0499 52.303 44.4108 52.2505L46.207 51.9914C46.4315 51.9584 46.6596 51.9579 46.8843 51.9899C48.375 50.2709 50.3016 48.9856 52.4613 48.2692C51.4798 47.509 50.0909 47.0134 48.0454 46.4413C45.5229 45.7364 43.6155 45.218 42.1642 44.8352C42.1379 44.8891 42.1079 44.941 42.0744 44.9906L38.2464 50.3714C38.0699 50.6193 37.8038 50.7887 37.5046 50.8439C37.2053 50.8991 36.8964 50.8357 36.643 50.6672L36.1731 50.3569L35.8483 51.5684L37.2858 63.795H41.8883C41.4706 62.8105 41.1557 61.7854 40.9485 60.7362C40.716 59.5742 40.6601 58.3837 40.7827 57.2049ZM30.0708 63.795L31.377 52.6534H33.6161L34.9223 63.795H30.0708ZM27.7142 63.795H10.2092C10.2023 60.6251 10.1607 57.4274 10.0848 54.2706C10.4165 48.688 11.5429 47.8545 16.6086 46.4413C19.2347 45.7072 21.1974 45.1739 22.6624 44.7889L26.6367 50.3714C26.8132 50.6192 27.0792 50.7886 27.3784 50.8438C27.6776 50.899 27.9866 50.8357 28.2399 50.6672L28.8065 50.2934L29.1452 51.5678L27.7146 63.7944L27.7142 63.795ZM26.4496 43.8837C26.1801 43.9276 25.7585 44.0171 25.1019 44.1719L27.8871 48.0878L30.3265 46.4644L26.4496 43.8837ZM25.4475 35.3668C21.688 32.4753 20.1468 27.4657 21.543 22.9449C28.6403 23.0167 33.7612 20.5219 36.7882 15.5181C37.4516 14.8736 38.0321 14.6086 38.5089 14.7302C39.1102 14.8822 40.7062 15.9037 42.5103 22.0806C42.5229 22.1229 42.5391 22.1641 42.5586 22.2037C43.5083 24.4757 43.6804 26.9978 43.0484 29.3778C42.4163 31.7578 41.0154 33.8621 39.0636 35.3636C37.1118 36.865 34.7185 37.6793 32.2561 37.6799C29.7936 37.6804 27.4 36.8672 25.4475 35.3666V35.3668ZM19.7323 21.1242C19.8417 20.9503 19.9953 20.8083 20.1773 20.7129C20.3594 20.6175 20.5635 20.572 20.7688 20.5811C27.4447 20.8389 32.1855 18.6897 34.8459 14.1927C34.8953 14.1092 34.9558 14.0327 35.0257 13.9654C36.3525 12.6213 37.721 12.1125 39.0823 12.4566C41.2942 13.0178 43.0767 15.7745 44.6731 21.1241H45.7098C46.0845 21.1243 46.458 21.1685 46.8224 21.2559C47.0021 20.4092 47.161 19.5302 47.2923 18.6353C47.3408 18.3084 47.3891 18.0022 47.4374 17.7125C47.8245 15.2192 47.9627 14.2875 46.7671 12.0289C45.2657 9.20414 42.9726 6.87894 40.169 5.33843C37.3654 3.79793 34.1732 3.10907 30.9838 3.35634C27.7944 3.60362 24.7465 4.77627 22.2139 6.7305C19.6812 8.68473 17.7739 11.3356 16.7258 14.358C16.3664 16.6537 16.6773 19.0718 17.6518 21.5597C18.276 21.2725 18.955 21.1239 19.6422 21.1242H19.7323ZM18.8339 28.2598C18.3396 28.0874 17.9131 27.762 17.6162 27.3308C17.3194 26.8997 17.1676 26.3851 17.183 25.8618C17.1984 25.3386 17.3802 24.8338 17.7018 24.4208C18.0235 24.0079 18.4684 23.7081 18.972 23.5651C18.6572 25.1105 18.6105 26.6985 18.8339 28.2598ZM45.7101 28.3986H45.627C45.8629 26.756 45.7903 25.0837 45.4129 23.4677H45.7101C46.364 23.4677 46.9911 23.7274 47.4535 24.1898C47.9158 24.6522 48.1756 25.2793 48.1756 25.9332C48.1756 26.5871 47.9158 27.2142 47.4535 27.6765C46.9911 28.1389 46.364 28.3986 45.7101 28.3986ZM34.1206 48.9886C34.1081 49.0141 34.0988 49.041 34.0929 49.0688L33.7612 50.3099H31.2319L30.8657 48.923L32.4414 47.8726L34.1206 48.9886ZM32.4413 45.057L27.9149 42.0467L28.5996 39.5184C31.0374 40.2033 33.6185 40.1906 36.0495 39.4818L36.7681 42.1771L32.4413 45.057ZM38.3846 43.916C38.6818 43.9727 39.117 44.0681 39.746 44.2201L36.9955 48.0873L34.5559 46.464L38.3847 43.916H38.3846ZM69.1447 60.3085C69.1412 56.9461 67.8041 53.7225 65.4267 51.3448C63.0493 48.9671 59.8257 47.6296 56.4634 47.6257C56.0271 47.6261 55.5911 47.6487 55.1572 47.6934C53.7957 45.8905 51.8261 45.0639 48.6748 44.1835C42.7315 42.5228 40.2159 41.9001 39.0549 41.661L38.2394 38.6244C39.0353 38.2343 39.7901 37.7653 40.4923 37.2243C42.6374 35.5727 44.2363 33.3141 45.0811 30.742H45.7101C46.6817 30.7422 47.6306 30.4482 48.4317 29.8985C49.2329 29.3488 49.8487 28.5694 50.1981 27.6628C50.5475 26.7562 50.6141 25.765 50.3891 24.8199C50.164 23.8747 49.6579 23.0199 48.9374 22.368C48.9857 22.2738 49.0228 22.1743 49.048 22.0715C49.2691 21.0772 49.4557 20.0354 49.6146 18.9762C49.663 18.6555 49.7044 18.3557 49.7529 18.0716C50.1537 15.4551 50.4024 13.876 48.8337 10.9307C47.1142 7.69468 44.4853 5.03251 41.2713 3.27227C38.0572 1.51204 34.3983 0.73066 30.7456 1.02444C27.0929 1.31823 23.6059 2.67433 20.7145 4.92563C17.823 7.17692 15.6535 10.225 14.4732 13.6943C14.4501 13.7554 14.4339 13.8189 14.4247 13.8837C13.9413 16.8484 14.3901 19.9521 15.7516 23.1103C15.2437 23.813 14.9351 24.6398 14.8583 25.5034C14.7815 26.3671 14.9394 27.2354 15.3153 28.0167C15.6912 28.798 16.2711 29.4633 16.9938 29.9422C17.7166 30.4212 18.5553 30.696 19.4213 30.7377C20.2731 33.3093 21.8733 35.5679 24.0169 37.2243C24.7558 37.794 25.5527 38.2844 26.3942 38.6873L25.5927 41.6609C24.4316 41.9 21.9229 42.5227 15.9728 44.1834C10.0432 45.8386 8.12896 47.4341 7.74194 54.184V54.2794C7.83188 57.8212 7.86646 61.4175 7.86646 64.9655C7.86526 65.1192 7.89456 65.2715 7.95267 65.4138C8.01078 65.556 8.09654 65.6853 8.20498 65.7942C8.42501 66.0142 8.7232 66.1382 9.03437 66.139H43.0148C43.0356 66.139 43.0633 66.1357 43.0839 66.1342C44.0071 67.6526 45.1092 69.0548 46.3666 70.3105C48.1376 72.1002 50.2133 73.56 52.4964 74.6213C53.5987 75.1253 54.7561 75.4989 55.945 75.7346C56.7169 75.8848 57.5013 75.9615 58.2877 75.9637C58.6848 75.964 59.0816 75.943 59.4764 75.9009C60.3886 75.846 61.2756 75.5808 62.0681 75.1259C62.8607 74.671 63.5371 74.0388 64.0445 73.2788C64.2452 72.9735 64.3772 72.6283 64.4315 72.267L64.6871 70.4771C64.7147 70.3017 64.7216 70.1236 64.7079 69.9464C66.1005 68.7564 67.2183 67.2784 67.9843 65.6145C68.7502 63.9506 69.1461 62.1403 69.1447 60.3085Z" fill="#4B6274"/>
</g>
<defs>
<clipPath id="clip0_22_4889">
<rect width="75" height="75" fill="white" transform="translate(0.943848 0.964111)"/>
</clipPath>
</defs>
</svg>
