<svg width="72" height="72" viewBox="0 0 72 72" fill="none" xmlns="http://www.w3.org/2000/svg">
<g clip-path="url(#clip0_22_4897)">
<path d="M6.28687 63.3457V26.6719C6.28687 25.4929 6.75521 24.3622 7.58887 23.5286C8.42252 22.6949 9.55321 22.2266 10.7322 22.2266H61.8533C63.0322 22.2266 64.1629 22.6949 64.9966 23.5286C65.8302 24.3622 66.2986 25.4929 66.2986 26.6719V63.3457H6.28687Z" fill="#004C9D"/>
<path d="M66.2996 26.672C66.2996 25.493 65.8312 24.3623 64.9976 23.5287C64.1639 22.695 63.0332 22.2267 61.8542 22.2267H10.7332C10.104 22.2283 9.48253 22.3647 8.91058 22.6268C8.64851 23.1987 8.51208 23.8202 8.5105 24.4493V34.7458C8.51079 40.8572 10.9387 46.7182 15.2601 51.0396C19.5815 55.361 25.4425 57.7889 31.5539 57.7892H66.2996V26.672Z" fill="#006BDB"/>
<path d="M10.7332 26.6721H61.8542V62.2346H10.7332V26.6721Z" fill="#C5DDEF"/>
<path d="M61.8542 26.6721H10.7332V44.5645C12.5919 48.5167 15.5365 51.8587 19.2231 54.2003C22.9098 56.542 27.1864 57.7867 31.5539 57.7893H61.8542V26.6721Z" fill="#E5EFF8"/>
<path d="M42.9614 60.0118V62.2345H29.6255V60.0118H2.95361V62.2345C2.95361 63.4135 3.42196 64.5441 4.25562 65.3778C5.08927 66.2115 6.21996 66.6798 7.39893 66.6798H65.188C66.367 66.6798 67.4976 66.2115 68.3313 65.3778C69.165 64.5441 69.6333 63.4135 69.6333 62.2345V60.0118H42.9614Z" fill="#006BDB"/>
<path d="M37.4038 33.3398H57.4077V37.7852H37.4038V33.3398Z" fill="white"/>
<path d="M45.1836 41.1194H58.5195V43.342H45.1836V41.1194Z" fill="white"/>
<path d="M40.738 45.5647H58.5193V47.7874H40.738V45.5647Z" fill="white"/>
<path d="M47.4062 50.0098H58.5195V52.2324H47.4062V50.0098Z" fill="white"/>
<path d="M36.2925 54.4552H58.519V56.6779H36.2925V54.4552Z" fill="white"/>
<path d="M24.0691 37.7854L15.1785 43.342V46.676L24.0691 45.5647H28.5144L37.405 46.676V43.342L28.5144 37.7854H24.0691Z" fill="#004C9D"/>
<path d="M28.5144 48.3426L31.8484 50.0096V52.2322H20.7351V50.0096L24.0758 48.3392L28.5144 48.3426Z" fill="#004C9D"/>
<path d="M27.6704 54.4885C27.5938 54.7964 27.4164 55.0697 27.1665 55.265C26.9165 55.4604 26.6085 55.5665 26.2913 55.5665C25.9736 55.5665 25.6651 55.4603 25.4148 55.2648C25.1645 55.0693 24.9867 54.7956 24.9099 54.4874V54.4808C24.3515 52.2496 24.069 49.9583 24.0686 47.6583V35.5626C24.0686 34.9731 24.3028 34.4078 24.7196 33.991C25.1364 33.5741 25.7018 33.34 26.2913 33.34C26.8807 33.34 27.4461 33.5741 27.8629 33.991C28.2797 34.4078 28.5139 34.9731 28.5139 35.5626V47.6494C28.5139 49.9551 28.2306 52.252 27.6704 54.4885Z" fill="#004C9D"/>
<path d="M27.131 52.2579V52.2645C27.1854 52.4747 27.2875 52.6696 27.4293 52.834C27.5712 52.9984 27.749 53.1279 27.949 53.2125C28.3217 51.3814 28.5112 49.5178 28.5146 47.6492V35.5624C28.5146 34.9729 28.2805 34.4076 27.8636 33.9907C27.4468 33.5739 26.8815 33.3397 26.292 33.3397V45.4354C26.2917 47.7353 26.5735 50.0266 27.131 52.2579Z" fill="#006BDB"/>
<path d="M36.2932 28.8948C43.0447 28.8948 48.5178 23.4216 48.5178 16.6702C48.5178 9.9187 43.0447 4.44556 36.2932 4.44556C29.5417 4.44556 24.0686 9.9187 24.0686 16.6702C24.0686 23.4216 29.5417 28.8948 36.2932 28.8948Z" fill="#8DBF00"/>
<path d="M36.2937 4.44532C33.5954 4.44458 30.9736 5.34147 28.8411 6.99471C27.0252 9.34435 26.1277 12.2753 26.3168 15.2388C26.5058 18.2024 27.7685 20.9955 29.8683 23.0953C31.9681 25.1952 34.7612 26.4578 37.7248 26.6468C40.6884 26.8359 43.6193 25.9385 45.9689 24.1225C47.3656 22.3155 48.2274 20.153 48.4566 17.8807C48.6858 15.6084 48.2731 13.3173 47.2653 11.2678C46.2576 9.21833 44.6953 7.49255 42.7558 6.28653C40.8163 5.08052 38.5775 4.44263 36.2937 4.44532Z" fill="#A6D305"/>
<path d="M27.4033 17.7814L30.7373 14.4474L34.0713 17.7814L41.8506 10.0021L45.1846 13.3361L34.0713 24.4493L27.4033 17.7814Z" fill="white"/>
</g>
<defs>
<clipPath id="clip0_22_4897">
<rect width="71.125" height="71.125" fill="white" transform="translate(0.731689 0.00012207)"/>
</clipPath>
</defs>
</svg>
