<?xml version="1.0" encoding="utf-8"?>
<!-- Generator: Adobe Illustrator 23.0.3, SVG Export Plug-In . SVG Version: 6.00 Build 0)  -->
<svg version="1.1" xmlns="http://www.w3.org/2000/svg" xmlns:xlink="http://www.w3.org/1999/xlink" x="0px" y="0px"
	 viewBox="0 0 500 500" style="enable-background:new 0 0 500 500;" xml:space="preserve">
<style type="text/css">
	.st0{fill:#D1E3FF;}
	.st1{fill:#EEF9FF;}
	.st2{fill:#CADEFC;}
	.st3{fill:#E3EEFF;}
	.st4{fill:#F5FCFF;}
	.st5{fill:#FFFFFF;}
	.st6{fill:#EBF3FF;}
	.st7{fill:#F3F8FF;}
	.st8{display:none;}
	.st9{display:inline;opacity:0.4;fill:#D4E8FF;}
	.st10{fill:#F0F6FF;}
	.st11{fill:#FF8B7B;}
	.st12{fill:#9FC6FF;}
	.st13{fill:#14365B;}
	.st14{fill:#EA7063;}
	.st15{fill:#0F264C;}
	.st16{fill:#0A1B35;}
	.st17{fill:#0053CC;}
	.st18{fill:#FF5652;}
	.st19{fill:#407BFF;}
	.st20{opacity:0.6;fill:#0053CC;}
	.st21{opacity:0.3;fill:#0053CC;}
	.st22{opacity:0.8;fill:#0053CC;}
</style>
<g id="Background_2">
	<g>
		<g>
			<g>
				<g>
					<rect y="382.4" class="st0" width="500" height="0.25"/>
					<rect x="85.91" y="392.99" class="st0" width="33.74" height="0.25"/>
					<rect x="58.55" y="393.11" class="st0" width="20.02" height="0.25"/>
					<rect x="208.33" y="387.75" class="st0" width="94.79" height="0.25"/>
					<rect x="137.56" y="400.08" class="st0" width="30.22" height="0.25"/>
					<rect x="335" y="391.19" class="st0" width="78.67" height="0.25"/>
					<path class="st0" d="M237.01,337.8H43.92c-3.15,0-5.71-2.56-5.71-5.71V60.66c0-3.15,2.56-5.71,5.71-5.71h193.1
						c3.15,0,5.71,2.56,5.71,5.71v271.43C242.72,335.24,240.16,337.8,237.01,337.8z M43.92,55.2c-3.01,0-5.46,2.45-5.46,5.46v271.43
						c0,3.01,2.45,5.46,5.46,5.46h193.1c3.01,0,5.46-2.45,5.46-5.46V60.66c0-3.01-2.45-5.46-5.46-5.46H43.92z"/>
					<path class="st0" d="M453.31,337.8h-193.1c-3.15,0-5.71-2.56-5.71-5.71V60.66c0-3.15,2.56-5.71,5.71-5.71h193.1
						c3.15,0,5.71,2.56,5.71,5.71v271.43C459.02,335.24,456.46,337.8,453.31,337.8z M260.21,55.2c-3.01,0-5.46,2.45-5.46,5.46
						v271.43c0,3.01,2.45,5.46,5.46,5.46h193.1c3.01,0,5.46-2.45,5.46-5.46V60.66c0-3.01-2.45-5.46-5.46-5.46H260.21z"/>
				</g>
			</g>
		</g>
		<g>
			<g>
				<rect x="395.74" y="265.78" class="st0" width="25.48" height="116.62"/>
				<polygon class="st1" points="416.38,382.4 421.22,382.4 421.22,368.63 411.31,368.63 				"/>
				<rect x="300.52" y="265.78" class="st0" width="25.48" height="116.62"/>
				<rect x="321.77" y="265.78" class="st1" width="99.45" height="108.17"/>
				
					<rect x="377.42" y="316.69" transform="matrix(6.123234e-17 -1 1 6.123234e-17 56.4311 734.1587)" class="st0" width="35.76" height="44.35"/>
				
					<rect x="329.82" y="316.69" transform="matrix(6.123234e-17 -1 1 6.123234e-17 8.8354 686.563)" class="st0" width="35.76" height="44.35"/>
				<path class="st1" d="M352.09,324.84h-8.77c-3.81,0-7.45-1.57-10.08-4.33l0,0h28.92l0,0
					C359.54,323.27,355.9,324.84,352.09,324.84z"/>
				<path class="st1" d="M400.13,324.84h-8.77c-3.81,0-7.45-1.57-10.08-4.33l0,0h28.92l0,0
					C407.58,323.27,403.94,324.84,400.13,324.84z"/>
				
					<rect x="377.42" y="269.63" transform="matrix(6.123234e-17 -1 1 6.123234e-17 103.487 687.1028)" class="st0" width="35.76" height="44.35"/>
				
					<rect x="329.82" y="269.63" transform="matrix(6.123234e-17 -1 1 6.123234e-17 55.8913 639.5071)" class="st0" width="35.76" height="44.35"/>
				<path class="st1" d="M352.09,277.78h-8.77c-3.81,0-7.45-1.57-10.08-4.33l0,0h28.92l0,0
					C359.54,276.21,355.9,277.78,352.09,277.78z"/>
				<path class="st1" d="M400.13,277.78h-8.77c-3.81,0-7.45-1.57-10.08-4.33l0,0h28.92l0,0
					C407.58,276.21,403.94,277.78,400.13,277.78z"/>
				<polygon class="st1" points="326.61,382.4 321.77,382.4 321.77,368.63 331.68,368.63 				"/>
			</g>
			<g>
				<g>
					<g>
						<path class="st2" d="M346.37,247.51c0,4.46,3.1,7.56-1.35,7.56s-14.78-3.11-14.78-7.56c0-4.46,3.61-8.07,8.07-8.07
							S346.37,243.06,346.37,247.51z"/>
						<path class="st2" d="M360.18,251.36c0,4.46,3.1,7.56-1.35,7.56s-14.78-3.11-14.78-7.56c0-4.46,3.61-8.07,8.07-8.07
							C356.57,243.29,360.18,246.9,360.18,251.36z"/>
						<path class="st2" d="M373.41,248.99c0,4.46,3.1,7.56-1.35,7.56c-4.46,0-14.78-3.11-14.78-7.56c0-4.46,3.61-8.07,8.07-8.07
							S373.41,244.53,373.41,248.99z"/>
						<path class="st3" d="M325.29,250.04c0,0,0.66,15.74,25.95,15.74c25.29,0,25.95-15.74,25.95-15.74H325.29z"/>
					</g>
				</g>
			</g>
			<g>
				<g>
					<rect x="294.05" y="73.99" class="st0" width="128.23" height="141.9"/>
					<path class="st0" d="M436.02,69.61H285.75c-0.7,0-1.27,0.57-1.27,1.27l0,0c0,0.7,0.57,1.27,1.27,1.27h150.27
						c0.7,0,1.27-0.57,1.27-1.27l0,0C437.29,70.18,436.72,69.61,436.02,69.61z"/>
					<rect x="296.59" y="73.99" class="st3" width="131.13" height="141.9"/>
					<rect x="294.05" y="215.89" class="st0" width="128.23" height="10.11"/>
					<rect x="305.65" y="215.89" class="st3" width="131.13" height="10.11"/>
					
						<rect x="298.82" y="86.99" transform="matrix(-1.836970e-16 1 -1 -1.836970e-16 507.0928 -217.2153)" class="st4" width="126.66" height="115.89"/>
					<polygon class="st5" points="330.52,208.27 375.23,81.61 396.33,81.61 351.62,208.27 					"/>
					<polygon class="st5" points="356.16,208.27 400.86,81.61 409.09,81.61 364.38,208.27 					"/>
					
						<rect x="356.29" y="144.46" transform="matrix(-1.836970e-16 1 -1 -1.836970e-16 564.5557 -274.6782)" class="st0" width="126.66" height="0.97"/>
				</g>
				<g>
					<rect x="291.19" y="67.33" class="st6" width="13.11" height="122.22"/>
					<rect x="299.19" y="67.33" class="st0" width="10.21" height="122.22"/>
					<rect x="304.3" y="67.33" class="st6" width="13.11" height="122.22"/>
					<rect x="312.3" y="67.33" class="st0" width="10.21" height="122.22"/>
					<rect x="317.41" y="67.33" class="st6" width="13.11" height="122.22"/>
				</g>
				<g>
					<rect x="407.67" y="67.33" class="st6" width="7.55" height="122.22"/>
					<rect x="412.28" y="67.33" class="st0" width="5.89" height="122.22"/>
					<rect x="415.22" y="67.33" class="st6" width="7.55" height="122.22"/>
					<rect x="419.83" y="67.33" class="st0" width="5.89" height="122.22"/>
					<rect x="422.78" y="67.33" class="st6" width="7.55" height="122.22"/>
				</g>
			</g>
			<g>
				<rect x="96.71" y="105.64" class="st3" width="13.66" height="37.27"/>
				<g>
					<g>
						<polygon class="st7" points="78.04,151.44 73.7,163.28 78.04,163.28 104.6,151.44 						"/>
						<polygon class="st0" points="73.7,151.44 73.7,163.28 100.27,151.44 						"/>
					</g>
					<g>
						<polygon class="st7" points="182.2,151.44 177.87,163.28 182.2,163.28 208.77,151.44 						"/>
						<polygon class="st0" points="177.87,151.44 177.87,163.28 204.43,151.44 						"/>
					</g>
					<g>
						
							<rect x="54.2" y="142.99" transform="matrix(-1 -1.224647e-16 1.224647e-16 -1 137.2977 294.9851)" class="st0" width="28.89" height="9.01"/>
						<rect x="83.09" y="142.99" class="st7" width="143.63" height="9.01"/>
					</g>
				</g>
				<g>
					<polygon class="st0" points="133.12,142.91 99.87,142.91 95.76,97.74 129.01,97.74 					"/>
					<polygon class="st1" points="134.84,142.91 101.6,142.91 97.49,97.74 130.73,97.74 					"/>
					<polygon class="st5" points="106.14,137.91 102.94,102.74 126.19,102.74 129.39,137.91 					"/>
				</g>
				<path class="st3" d="M148.26,128.24c0,0,0.61,14.67,24.18,14.67c23.57,0,24.18-14.67,24.18-14.67H148.26z"/>
			</g>
			<g>
				<g>
					<path class="st0" d="M123.76,379.16H87.33c-1.69,0-3.13-1.04-3.66-2.64c-0.53-1.61,0-3.3,1.36-4.3l0.6,0.8
						c-1.22,0.91-1.32,2.24-1.01,3.19c0.31,0.95,1.19,1.96,2.71,1.96h36.43c4.64,0,8.41-3.77,8.41-8.41V261.88
						c0-5.05,4.11-9.17,9.17-9.17h10.9v1h-10.9c-4.5,0-8.17,3.66-8.17,8.17v107.86C133.18,374.93,128.95,379.16,123.76,379.16z"/>
					<rect x="179.84" y="254.77" class="st0" width="65.61" height="127.63"/>
					<rect x="242.51" y="254.77" class="st6" width="5.41" height="127.63"/>
					
						<rect x="119.14" y="254.77" transform="matrix(-1 -1.224647e-16 1.224647e-16 -1 368.7268 519.113)" class="st6" width="130.46" height="9.57"/>
					<rect x="52.74" y="254.77" class="st0" width="65.61" height="127.63"/>
					<rect x="115.4" y="254.77" class="st6" width="5.41" height="127.63"/>
				</g>
				<g>
					<polygon class="st0" points="98.03,216.67 159.17,216.67 168.03,252.77 106.89,252.77 					"/>
					<polygon class="st0" points="106.89,252.77 107.14,254.77 168.28,254.77 168.04,252.77 					"/>
					<polygon class="st1" points="99.92,216.67 161.05,216.67 169.92,252.77 108.78,252.77 					"/>
					<polygon class="st5" points="110.07,251.12 102.02,218.32 159.76,218.32 167.81,251.12 					"/>
					<polygon class="st1" points="124.71,252.77 124.95,254.77 192.28,254.77 192.03,252.77 					"/>
				</g>
				<g>
					<path class="st1" d="M77.07,245.67c0,0-9-15.51,3.49-27.86c0,0,3.26,2.12,3.21,4.98c-0.05,2.85-3.49,3.58-2.75,5.96
						c0.74,2.38,3.99,4.72,1.85,6.69c-2.13,1.97,0.34,3.72,0.2,6.14C82.92,243.99,77.07,245.67,77.07,245.67z"/>
					<path class="st1" d="M77.75,247.09c0,0,3.65-17.56-12.09-25.34c0,0-2.42,3.04-1.47,5.74c0.95,2.69,4.44,2.29,4.49,4.79
						c0.05,2.49-2.29,5.74,0.35,6.93c2.64,1.2,0.85,3.64,1.75,5.89C71.67,247.34,77.75,247.09,77.75,247.09z"/>
					<path class="st0" d="M63.97,243.2c0,0,0.3,11.57,11.77,11.57s11.77-11.57,11.77-11.57H63.97z"/>
				</g>
				<g>
					<path class="st6" d="M225.74,382.4h-2.28l-6.52-32.16l-1.15-5.63l-7.12-35.04h-27.29l-14.79,72.83h-2.28l15.07-74.17
						c0.11-0.52,0.56-0.89,1.1-0.89h29.11c0.53,0,0.99,0.37,1.09,0.89l6.25,30.78l1.15,5.62L225.74,382.4z"/>
					<path class="st6" d="M269.55,382.4h-2.28l-14.8-72.83h-27.28l-7.12,35.06l-1.14,5.62l-6.53,32.16h-2.28l7.67-37.79l1.14-5.61
						l6.25-30.78c0.11-0.52,0.57-0.89,1.1-0.89h29.11c0.54,0,0.99,0.37,1.1,0.89L269.55,382.4z"/>
					<path class="st3" d="M202.29,308.45h50.14c9.57,0,17.39-7.66,17.58-17.23l1.87-76.2c0.15-7.17-5.63-13.07-12.81-13.07h-31.43
						c-6.51,0-11.99,4.89-12.73,11.36L202.29,308.45z"/>
					<path class="st3" d="M180.56,298.84h49.07v9.61H176.2c-1.38,0-2.5-1.12-2.5-2.5v-0.24
						C173.7,301.92,176.77,298.84,180.56,298.84z"/>
				</g>
			</g>
		</g>
	</g>
</g>
<g id="Background_1" class="st8">
	<path class="st9" d="M97.55,173.98c37.5-25.74,92.69,3.84,125.89-25.32c20.45-17.97,21.88-45.46,34.84-66.88
		c11.43-18.9,33.43-27.54,54.6-28.47c43.79-1.93,99.79,26.75,98.73,76.55c-1.01,47.12-61.04,56.48-62.92,105.58
		c-1.7,44.29,40.77,81.43-10.82,114.18c-39.05,24.79-91.63,12.96-112.08-29.73c-10.88-22.72-14.66-39.25-40.87-49.95
		c-22.57-9.22-45.03-1.81-68.07-6.31C71.12,254.7,58.12,201.04,97.55,173.98z"/>
</g>
<g id="Objects">
	<g>
		<ellipse class="st10" cx="250" cy="416.24" rx="193.89" ry="11.32"/>
		<g>
			<g>
				<path class="st11" d="M276.44,170.82l0.65,0.55c0.24,0.2,0.51,0.4,0.76,0.61c0.52,0.41,1.05,0.82,1.6,1.2
					c1.08,0.79,2.24,1.51,3.39,2.23c2.31,1.43,4.75,2.68,7.26,3.72c2.51,1.05,5.09,1.97,7.74,2.64c0.66,0.18,1.33,0.3,2,0.45l1,0.22
					c0.21,0.04,0.04,0.02-0.06,0.05c-0.12,0.04-0.3,0.1-0.38,0.18c-0.09,0.09-0.09,0.08-0.05,0.06c0.09-0.11,0.3-0.47,0.46-0.94
					c0.33-0.95,0.54-2.24,0.66-3.55c0.12-1.32,0.16-2.69,0.15-4.09c-0.02-2.79-0.22-5.64-0.44-8.5c-0.24-2.86-0.57-5.73-0.94-8.6
					c-0.34-2.87-0.78-5.76-1.2-8.6l3.76-0.86c1.66,5.72,2.97,11.46,3.97,17.36c0.51,2.94,0.89,5.92,1.1,8.98
					c0.1,1.53,0.15,3.08,0.11,4.69c-0.06,1.61-0.17,3.25-0.66,5.11c-0.26,0.93-0.6,1.94-1.35,3.03c-0.41,0.55-0.88,1.12-1.59,1.61
					c-0.68,0.48-1.55,0.87-2.39,1c-0.82,0.17-1.73,0.09-2.24,0.01l-1.15-0.19c-0.77-0.13-1.54-0.23-2.31-0.4
					c-3.06-0.62-6.08-1.47-9-2.58c-2.92-1.12-5.74-2.49-8.45-4.06c-1.34-0.81-2.66-1.66-3.94-2.59c-0.64-0.46-1.27-0.94-1.9-1.44
					c-0.31-0.26-0.62-0.5-0.93-0.78c-0.32-0.28-0.59-0.52-0.99-0.9L276.44,170.82z"/>
				<path class="st12" d="M265.57,166.27c10.97-1.49,19.84,7.38,19.84,7.38l-10.06,15.52c0,0-10.78-6.9-12.67-11.6
					C260.71,172.68,259.94,167.03,265.57,166.27z"/>
				<path class="st11" d="M299.17,149.79l-3.64-7.32l9.57-0.08c0,0,0.19,5.11-2.23,8.04L299.17,149.79z"/>
				<polygon class="st11" points="297.22,134.6 304.34,135.87 305.09,142.39 295.52,142.47 				"/>
				<polygon class="st11" points="226.67,407.87 235.63,408.73 241.83,387.68 232.87,386.82 				"/>
				<polygon class="st11" points="169.7,376.75 176.34,382.99 190.68,367.23 184.04,360.99 				"/>
				<path class="st13" d="M179.41,380l-4.99-8.99c-0.18-0.33-0.56-0.47-0.9-0.34l-7.68,2.92c-0.8,0.3-1.14,1.33-0.71,2.07
					c1.79,3.11,2.82,4.51,5.01,8.47c1.35,2.43,3.98,8.01,5.84,11.37c1.82,3.29,5.29,1.69,4.81,0.13
					c-2.13-7.02-1.73-10.93-1.13-14.03C179.77,381.05,179.67,380.47,179.41,380z"/>
				<path class="st13" d="M236.68,406h-10.86c-0.4,0-0.75,0.27-0.86,0.66l-2.36,8.59c-0.24,0.89,0.41,1.71,1.32,1.72
					c3.83,0.03,5.64,0.02,10.42,0.02c2.94,0,10.54,0,14.6,0c3.97,0,4.8-4.01,3.16-4.38c-7.36-1.63-11.61-3.88-13.88-6.02
					C237.81,406.21,237.26,406,236.68,406z"/>
				<polygon class="st14" points="241.83,387.69 238.64,398.54 229.41,398.54 232.86,386.83 				"/>
				<polygon class="st14" points="184.03,361 190.68,367.23 183.28,375.35 176.64,369.11 				"/>
				<path class="st15" d="M276.41,160.06c-0.07-7.27-6.64-9.81-6.64-9.81s8.23-15.58,3.98-25.92c-4.25-10.33-18.17-12.17-22.6-7.33
					c-7.76-0.33-10.24,10.83-10.24,10.83s-6.5,1.08-8.25,5.81c-1.75,4.73,3.58,10.06,3.58,10.06s-7.42,1.04-10.15,6.71
					c-2.73,5.67-1.06,13.29,7.15,19.83c11.92,9.5,33.83-2.42,33.83-2.42S276.49,168.42,276.41,160.06z"/>
				<path class="st12" d="M274.96,167.29c0,0,3.97,1.75-9.36,54.51c-14.7-1.27-29.89-2.59-37.04-3.2
					c1.93-15.02,2.75-24.32-1.78-55.88c0,0,7.91-1.02,15.91-0.71c6.26,0.24,11.38,0.48,16.82,1.46
					C266.67,164.75,274.96,167.29,274.96,167.29z"/>
				<path class="st5" d="M265.41,164.71c-1.92-0.46-3.95-0.9-5.9-1.25c-5.44-0.97-10.56-1.21-16.82-1.45
					c-1.93-0.07-3.86-0.07-5.67-0.03l1.24,2.36c0.22,0.42,5.5,10.27,15.53,15.86l2.76,1.54l2.57-1.83
					C265.6,175.3,266.56,169.28,265.41,164.71z"/>
				<path class="st11" d="M245.99,143.21c0.59,5.5,0.79,15.51-3.3,18.8c0,0,4.69,8.89,13.54,13.82c7.85-5.58,3.28-12.37,3.28-12.37
					c-5.91-1.96-5.37-6.43-3.95-10.54L245.99,143.21z"/>
				<path class="st14" d="M249.89,147.17l5.66,5.74c-0.34,0.97-0.62,1.97-0.78,2.94c-2.28-0.53-5.57-2.9-5.61-5.33
					C249.15,149.31,249.64,147.72,249.89,147.17z"/>
				<path class="st11" d="M245.76,130.71c-1.08,9.02-1.73,12.82,1.93,18.22c5.52,8.13,16.84,7.48,20.59-1.03
					c3.38-7.66,4.58-21.13-3.5-26.28C256.82,116.55,246.84,121.69,245.76,130.71z"/>
				<path class="st15" d="M252.74,119.62c6.95,1.8,0.08,22.94-11.04,16.81c0,0,0.5-8.93,3.58-12.72
					C248.37,119.92,252.74,119.62,252.74,119.62z"/>
				<path class="st15" d="M251.99,120.79c3,4.88,25.25,14.12,17.77,3.62S251.99,120.79,251.99,120.79z"/>
				<path class="st11" d="M242.9,138.5c-0.15,1.88,0.57,3.65,1.59,4.82c1.53,1.75,3.57,0.69,4.21-1.43c0.57-1.9,0.47-5.1-1.59-6.08
					C245.09,134.85,243.08,136.36,242.9,138.5z"/>
				<path class="st15" d="M265.6,221.81c0,0,12.53,55.44,4.17,94.53c-5.6,26.18-25.81,79.06-25.81,79.06l-15.8-0.41
					c0,0,15.3-55.5,18.46-77.32c5.41-37.33-8.14-98.21-8.14-98.21L265.6,221.81z"/>
				<path class="st16" d="M251.15,233l-7.9,12.46c2.01,12.92,4.01,29.08,4.52,44.63C258.88,270.2,253.62,243.53,251.15,233z"/>
				<polygon class="st12" points="245.26,396.21 225.74,395.72 226.87,389.72 248.18,390.73 				"/>
				<path class="st15" d="M257.5,221.21c0,0-7.35,58.8-23.29,90.9c-12.87,25.93-47.22,62.84-47.22,62.84l-8.78-9.05
					c0,0,23.2-40.11,32.77-57.33c23.46-42.23,4.29-74.46,17.58-89.96L257.5,221.21z"/>
				<polygon class="st12" points="187.88,376.16 176.54,365.11 180.3,359.99 192.66,372.76 				"/>
				<path class="st17" d="M228.19,216.38l-1.96,3.17c-0.15,0.25,0.13,0.53,0.56,0.57l38.85,3.36c0.33,0.03,0.62-0.11,0.66-0.32
					l0.62-3.29c0.04-0.23-0.23-0.45-0.6-0.48l-37.51-3.24C228.54,216.13,228.29,216.22,228.19,216.38z"/>
				<path class="st15" d="M232.87,221.01l-1-0.09c-0.2-0.02-0.34-0.13-0.32-0.26l0.84-4.27c0.02-0.12,0.21-0.21,0.41-0.2l1,0.09
					c0.2,0.02,0.34,0.13,0.32,0.26l-0.84,4.27C233.25,220.94,233.07,221.03,232.87,221.01z"/>
				<path class="st15" d="M262.79,223.6l-1-0.09c-0.2-0.02-0.34-0.13-0.32-0.26l0.84-4.27c0.02-0.12,0.21-0.21,0.41-0.2l1,0.09
					c0.2,0.02,0.34,0.13,0.32,0.26l-0.84,4.27C263.17,223.53,262.99,223.61,262.79,223.6z"/>
				<path class="st15" d="M247.83,222.3l-1-0.09c-0.2-0.02-0.34-0.13-0.32-0.26l0.84-4.27c0.02-0.12,0.21-0.21,0.41-0.2l1,0.09
					c0.2,0.02,0.34,0.13,0.32,0.26l-0.84,4.27C248.21,222.23,248.03,222.32,247.83,222.3z"/>
				<path class="st15" d="M258.83,135.68c-0.13,0.73,0.14,1.39,0.62,1.47s0.97-0.43,1.1-1.16c0.13-0.73-0.14-1.39-0.62-1.47
					C259.46,134.43,258.97,134.95,258.83,135.68z"/>
				<path class="st15" d="M267.04,137.18c-0.13,0.73,0.14,1.39,0.62,1.47c0.47,0.09,0.97-0.43,1.1-1.16
					c0.13-0.73-0.14-1.39-0.62-1.47C267.67,135.93,267.18,136.45,267.04,137.18z"/>
				<path class="st15" d="M267.93,136.02l1.84-0.18C269.76,135.84,268.62,137.04,267.93,136.02z"/>
				<path class="st18" d="M264.64,138.03c0,0,0.66,3.35,1.74,5.11c-1.12,0.72-2.68,0.01-2.68,0.01L264.64,138.03z"/>
				<path class="st15" d="M260.67,145.51c-0.01,0-0.02,0-0.03,0c-3.4-0.62-4.53-3.23-4.58-3.34c-0.04-0.09,0-0.2,0.1-0.24
					c0.09-0.04,0.2,0,0.24,0.1c0.01,0.03,1.11,2.54,4.31,3.13c0.1,0.02,0.16,0.11,0.15,0.21
					C260.83,145.45,260.75,145.51,260.67,145.51z"/>
				<path class="st15" d="M256.88,130.02c-0.11,0-0.22-0.05-0.29-0.14c-0.12-0.16-0.09-0.38,0.07-0.51c1.88-1.43,3.73-0.8,3.81-0.77
					c0.19,0.07,0.28,0.27,0.22,0.46c-0.07,0.19-0.27,0.28-0.46,0.22c-0.06-0.02-1.58-0.53-3.13,0.66
					C257.03,129.99,256.95,130.02,256.88,130.02z"/>
				<path class="st15" d="M271.68,134.42c-0.1,0-0.21-0.04-0.28-0.13c-1.25-1.52-2.88-1.37-2.9-1.37c-0.2,0.02-0.38-0.12-0.4-0.32
					c-0.02-0.2,0.12-0.38,0.32-0.4c0.08-0.01,2.04-0.2,3.53,1.62c0.13,0.15,0.1,0.38-0.05,0.51
					C271.84,134.39,271.76,134.42,271.68,134.42z"/>
				<path class="st11" d="M229.59,175.97c-1.53,3.12-3.18,5.86-4.95,8.68c-1.8,2.76-3.7,5.46-5.76,8.06
					c-2.04,2.61-4.29,5.08-6.64,7.45c-1.23,1.15-2.41,2.33-3.72,3.4l-0.96,0.82l-0.24,0.21l-0.32,0.25
					c-0.22,0.16-0.43,0.34-0.66,0.48c-0.91,0.62-1.91,1.12-2.93,1.47c-2.06,0.71-4.17,0.83-6.09,0.67c-1.93-0.18-3.72-0.61-5.4-1.18
					c-3.36-1.16-6.38-2.73-9.19-4.53c-5.62-3.62-10.57-7.8-15.14-12.54l2.65-2.8c2.39,1.92,4.92,3.83,7.49,5.57
					c2.56,1.77,5.19,3.41,7.88,4.84c2.69,1.4,5.43,2.68,8.16,3.41c2.71,0.76,5.42,0.89,7.29,0.1c1.01-0.4,1.52-0.84,2.77-2.04
					c1.11-1,2.14-2.11,3.2-3.19c2.05-2.23,3.95-4.62,5.81-7.04c1.85-2.44,3.57-5,5.2-7.6c0.83-1.29,1.62-2.61,2.4-3.94
					c0.75-1.32,1.53-2.71,2.18-3.95L229.59,175.97z"/>
				<path class="st11" d="M172.68,187.63l-3.56-7.36l-5.92,7.52c0,0,3.92,3.28,7.73,3.16L172.68,187.63z"/>
				<polygon class="st11" points="165.23,178.12 161.88,184.52 163.2,187.79 169.12,180.27 				"/>
				<path class="st12" d="M226.78,162.72c-4.54,0.8-10.9,13.83-10.9,13.83l12.46,11.27c0,0,8.09-10.85,7.6-16.77
					C235.53,166.03,232.56,161.7,226.78,162.72z"/>
				<path class="st19" d="M181.16,384.83c-0.12,0-0.24-0.02-0.35-0.06c-1.09-0.37-1.8-2.38-2.13-3.54c-0.02-0.07,0-0.14,0.06-0.19
					c0.06-0.05,0.13-0.05,0.2-0.02c0.33,0.17,3.23,1.72,3.33,2.87c0.01,0.17-0.03,0.43-0.31,0.64
					C181.69,384.73,181.42,384.83,181.16,384.83z M179.15,381.55c0.5,1.61,1.15,2.67,1.77,2.88c0.27,0.09,0.53,0.03,0.82-0.19
					c0.16-0.12,0.17-0.24,0.17-0.32C181.85,383.22,180.15,382.11,179.15,381.55z"/>
				<path class="st19" d="M181.61,382c-1.03,0-2.29-0.33-2.85-0.67c-0.06-0.03-0.09-0.09-0.09-0.16c0-0.06,0.04-0.12,0.09-0.15
					c0.1-0.05,2.39-1.32,3.63-0.88c0.32,0.11,0.55,0.33,0.68,0.64c0.2,0.48-0.02,0.76-0.16,0.89
					C182.64,381.91,182.15,382,181.61,382z M179.25,381.18c0.98,0.42,2.89,0.68,3.43,0.22c0.09-0.08,0.18-0.2,0.06-0.48
					c-0.09-0.21-0.24-0.36-0.46-0.44C181.43,380.19,179.9,380.86,179.25,381.18z"/>
				<path class="st19" d="M241.5,407.76c-1.04,0-2.18-0.2-2.97-0.38c-0.08-0.02-0.13-0.08-0.14-0.16c-0.01-0.08,0.03-0.15,0.1-0.18
					c0.45-0.21,4.38-2.03,5.38-1.36c0.13,0.09,0.27,0.25,0.26,0.56c-0.02,0.42-0.21,0.77-0.54,1.02
					C243.11,407.63,242.33,407.76,241.5,407.76z M239.16,407.14c1.17,0.22,3.33,0.5,4.22-0.17c0.25-0.19,0.38-0.43,0.39-0.75
					c0.01-0.15-0.05-0.2-0.1-0.24C243.12,405.6,240.79,406.42,239.16,407.14z"/>
				<path class="st19" d="M238.58,407.38c-0.04,0-0.08-0.01-0.12-0.04c-0.05-0.04-0.07-0.11-0.06-0.18c0.04-0.17,0.94-4.06,3.07-3.8
					c0.54,0.06,0.68,0.33,0.71,0.54c0.13,0.99-2.35,2.98-3.54,3.47C238.62,407.38,238.6,407.38,238.58,407.38z M241.28,403.71
					c-1.36,0-2.16,2.26-2.43,3.17c1.28-0.67,3.06-2.29,2.97-2.93c-0.01-0.05-0.03-0.19-0.4-0.23
					C241.38,403.71,241.33,403.71,241.28,403.71z"/>
				<path class="st15" d="M259.72,134.52l1.84-0.18C261.55,134.33,260.41,135.53,259.72,134.52z"/>
			</g>
			<g>
				<path class="st20" d="M184.49,77.53l-29.31,189.44l164.92,25.51l29.31-189.44L184.49,77.53z M252.25,185.3
					c-21.13-3.27-35.61-23.05-32.34-44.18c3.27-21.14,23.05-35.61,44.18-32.34c21.14,3.27,35.61,23.04,32.34,44.18
					C293.16,174.09,273.39,188.57,252.25,185.3z"/>
				<path class="st21" d="M315.12,285.29l-0.25-0.04L149.7,259.7l0.04-0.25l29.35-189.69l0.25,0.04L344.5,95.35l-0.04,0.25
					L315.12,285.29z M150.27,259.28l164.43,25.44l29.23-188.95L179.5,70.33L150.27,259.28z"/>
				<path class="st5" d="M258.19,187.26c-2.04,0-4.1-0.16-6.17-0.48l0,0c-21.91-3.39-36.98-23.98-33.59-45.89
					c1.64-10.62,7.32-19.96,15.99-26.3c8.67-6.34,19.29-8.93,29.9-7.29c21.91,3.39,36.98,23.98,33.59,45.89
					C294.84,173.03,277.68,187.26,258.19,187.26z M252.48,183.82c20.28,3.14,39.33-10.81,42.47-31.09
					c3.14-20.28-10.81-39.33-31.09-42.47c-9.82-1.52-19.65,0.88-27.67,6.75c-8.02,5.87-13.28,14.52-14.8,24.34
					C218.25,161.63,232.2,180.68,252.48,183.82L252.48,183.82z"/>
				<g>
					
						<rect x="183.2" y="194.18" transform="matrix(0.9882 0.1529 -0.1529 0.9882 32.6894 -28.4875)" class="st12" width="36.76" height="8.26"/>
					
						<rect x="224.38" y="199.63" transform="matrix(0.9882 0.1529 -0.1529 0.9882 33.9369 -33.8102)" class="st12" width="24.87" height="8.26"/>
					
						<rect x="180.07" y="218.07" transform="matrix(0.9882 0.1529 -0.1529 0.9882 36.8711 -35.0812)" class="st5" width="132.93" height="8.26"/>
					
						<rect x="177.78" y="230.32" transform="matrix(0.9882 0.1529 -0.1529 0.9882 38.3239 -29.4777)" class="st5" width="66.1" height="8.26"/>
					
						<rect x="254.41" y="240.48" transform="matrix(0.9882 0.1529 -0.1529 0.9882 40.6497 -39.4013)" class="st5" width="44.22" height="8.26"/>
					
						<rect x="174.86" y="250.75" transform="matrix(0.9882 0.1529 -0.1529 0.9882 41.6488 -31.8615)" class="st5" width="106.27" height="8.26"/>
				</g>
			</g>
			<g>
				<g>
					<path class="st12" d="M351.17,292.48h-1c0-2.49-0.31-4.97-0.91-7.36l0.97-0.24C350.86,287.35,351.17,289.91,351.17,292.48z
						 M347.25,279.56c-2.19-4.58-5.53-8.57-9.67-11.54l0.58-0.81c4.28,3.07,7.73,7.19,10,11.92L347.25,279.56z"/>
					<path class="st12" d="M320.1,264.91c-15.23,0-27.57,12.34-27.57,27.57c0,15.23,12.34,27.57,27.57,27.57
						c15.23,0,27.57-12.34,27.57-27.57C347.67,277.25,335.33,264.91,320.1,264.91z M320.1,316.48c-13.25,0-23.99-10.74-23.99-23.99
						c0-13.25,10.74-23.99,23.99-23.99c13.25,0,23.99,10.74,23.99,23.99C344.1,305.73,333.35,316.48,320.1,316.48z"/>
					<circle class="st22" cx="320.1" cy="292.48" r="23.99"/>
				</g>
				<polygon class="st5" points="316.37,307.66 302.29,293.58 305.83,290.05 316.37,300.59 334.38,282.58 337.91,286.12 				"/>
			</g>
		</g>
	</g>
</g>
<g id="Designed_by_Freepik">
</g>
</svg>
